<svg version="1.1" id="Layer_1" xmlns="http://www.w3.org/2000/svg" xmlns:xlink="http://www.w3.org/1999/xlink" x="0px" y="0px"
	 width="100%" viewBox="0 0 192 192" enable-background="new 0 0 192 192" xml:space="preserve">
<path fill="#1873BC" opacity="1.000000" stroke="none" 
	d="
M1.000000,94.000000 
	C1.000000,63.114407 1.000000,32.228813 1.000000,1.000000 
	C9.351089,1.000000 17.706879,1.000000 26.531334,1.468657 
	C27.000168,15.230699 26.974285,28.524189 27.028912,41.817348 
	C27.036999,43.785019 27.000135,45.930481 27.736397,47.676430 
	C28.875389,50.377399 29.311272,52.568424 27.095024,54.975082 
	C26.434954,55.691864 26.812525,57.364193 26.714659,58.598701 
	C27.919237,58.671638 29.418041,59.239143 30.275684,58.728912 
	C33.407085,56.865990 36.253399,57.178383 39.027260,59.385128 
	C35.633816,62.827343 32.352993,65.949471 28.729567,69.132401 
	C25.609425,71.817993 22.831886,74.442772 19.908543,77.250732 
	C19.552912,77.667175 19.318762,77.872749 18.711155,78.107254 
	C16.928740,79.467094 15.495458,80.770302 13.904136,82.310028 
	C13.182487,83.045746 12.618878,83.544937 11.747962,84.152328 
	C10.955265,85.164047 10.469875,86.067566 9.759382,87.205727 
	C8.023685,89.293877 6.513091,91.147400 4.664795,93.066788 
	C3.218061,93.421783 2.109031,93.710892 1.000000,94.000000 
z"/>
<path fill="#1873BC" opacity="1.000000" stroke="none" 
	d="
M27.000000,193.000000 
	C18.368589,193.000000 9.737180,193.000000 1.000000,193.000000 
	C1.000000,165.979187 1.000000,138.958252 1.304613,111.343399 
	C4.448080,107.641693 6.205602,107.716042 7.448789,112.196411 
	C7.964175,114.053841 9.723547,115.750885 11.282750,117.097649 
	C15.234594,120.511055 19.380932,123.700531 23.472679,126.950348 
	C27.298147,129.988693 31.153566,132.989304 35.121803,136.304916 
	C36.164722,137.069489 37.081635,137.535660 38.148476,138.184647 
	C38.510788,138.601929 38.743923,138.813522 39.082024,139.341278 
	C40.995773,141.728088 42.766094,143.832962 44.670372,145.808716 
	C46.880463,148.101761 49.157223,150.336624 51.497295,152.496811 
	C54.620426,155.379852 57.832359,158.166702 61.188492,161.144928 
	C61.604866,161.507172 61.816788,161.739517 62.005493,162.367706 
	C62.003700,163.494553 62.002995,164.245743 61.670006,164.915771 
	C59.906742,163.737976 58.227043,162.851074 57.091866,161.504974 
	C53.816063,157.620529 51.337742,152.830902 47.475483,149.730698 
	C42.280071,145.560364 36.147694,142.523331 30.290974,139.224457 
	C27.133268,137.445831 25.966965,139.482422 26.072508,142.307999 
	C26.226675,146.435425 26.915792,150.549545 26.955181,154.673355 
	C27.077196,167.447891 26.999922,180.224304 27.000000,193.000000 
z"/>
<path fill="#2389C9" opacity="1.000000" stroke="none" 
	d="
M167.000000,1.000000 
	C175.632675,1.000000 184.265350,1.000000 193.000000,1.000000 
	C193.000000,29.354153 193.000000,57.708420 192.628891,86.522575 
	C190.172867,85.988205 188.087967,84.993950 185.904266,83.657761 
	C182.294739,79.380592 180.586792,72.674240 172.973846,74.619858 
	C170.625885,70.165848 168.312943,66.082924 165.914185,61.599602 
	C165.630096,58.250988 164.698715,55.124096 165.365829,52.386784 
	C167.724915,42.707146 167.822723,33.203232 165.327591,23.539917 
	C164.649399,20.913324 165.066650,17.938118 165.315125,15.152703 
	C165.737076,10.422676 166.424286,5.716311 167.000000,1.000000 
z"/>
<path fill="#2389C9" opacity="1.000000" stroke="none" 
	d="
M193.000000,108.000000 
	C193.000000,136.221191 193.000000,164.442398 193.000000,193.000000 
	C184.648788,193.000000 176.293060,193.000000 167.468033,192.575485 
	C166.642532,190.041168 166.167267,187.943161 165.957199,185.818893 
	C165.617401,182.382980 165.106598,178.911530 165.288071,175.487946 
	C165.619019,169.243820 166.750122,163.028656 166.838257,156.791382 
	C166.876404,154.090942 165.059738,151.392853 164.265732,148.641708 
	C163.768417,146.918564 162.695496,144.398209 163.437866,143.432693 
	C169.507034,135.539185 176.038452,128.003281 182.220825,120.193596 
	C184.744858,117.005196 186.754105,113.409286 188.998810,109.749130 
	C189.000046,109.499481 189.002441,109.000160 189.339447,108.933067 
	C190.784286,108.577316 191.892151,108.288658 193.000000,108.000000 
z"/>
<path fill="#2286C8" opacity="1.000000" stroke="none" 
	d="
M166.531342,1.000000 
	C166.424286,5.716311 165.737076,10.422676 165.315125,15.152703 
	C165.066650,17.938118 164.649399,20.913324 165.327591,23.539917 
	C167.822723,33.203232 167.724915,42.707146 165.365829,52.386784 
	C164.698715,55.124096 165.630096,58.250988 165.542450,61.677490 
	C163.505371,62.436275 161.754211,62.716774 160.000015,62.595673 
	C160.633377,57.240314 157.016357,54.694775 153.609116,53.096344 
	C148.563431,50.729286 147.540802,45.768955 145.093781,41.860260 
	C142.556946,37.808090 141.362915,32.933128 139.331192,28.533665 
	C138.856079,27.504860 137.479431,26.673306 136.332199,26.211800 
	C131.283707,24.180906 130.995193,22.997395 134.017166,18.347357 
	C134.872620,17.031042 135.243286,15.062615 135.067551,13.478549 
	C134.603363,9.294074 133.717819,5.156340 133.000000,1.000000 
	C144.020889,1.000000 155.041794,1.000000 166.531342,1.000000 
z"/>
<path fill="#2286C8" opacity="1.000000" stroke="none" 
	d="
M188.997559,109.998772 
	C186.754105,113.409286 184.744858,117.005196 182.220825,120.193596 
	C176.038452,128.003281 169.507034,135.539185 163.437866,143.432693 
	C162.695496,144.398209 163.768417,146.918564 164.265732,148.641708 
	C165.059738,151.392853 166.876404,154.090942 166.838257,156.791382 
	C166.750122,163.028656 165.619019,169.243820 165.288071,175.487946 
	C165.106598,178.911530 165.617401,182.382980 165.957199,185.818893 
	C166.167267,187.943161 166.642532,190.041168 166.999359,192.575485 
	C156.312439,193.000000 145.624878,193.000000 134.469208,192.580841 
	C134.983215,188.191818 135.854752,184.190552 136.971161,180.258804 
	C139.090622,172.794357 141.107040,165.284729 143.663986,157.967804 
	C144.784561,154.761215 146.635956,151.491165 149.014923,149.107788 
	C154.412949,143.699753 160.636154,139.106934 165.949402,133.625824 
	C169.185913,130.287079 171.353897,125.912529 174.349136,121.927742 
	C177.067490,120.002434 179.484100,118.207512 181.797134,116.287804 
	C184.248550,114.253250 186.601562,112.100113 188.997559,109.998772 
z"/>
<path fill="#1A76BF" opacity="1.000000" stroke="none" 
	d="
M27.468273,193.000000 
	C26.999922,180.224304 27.077196,167.447891 26.955181,154.673355 
	C26.915792,150.549545 26.226675,146.435425 26.072508,142.307999 
	C25.966965,139.482422 27.133268,137.445831 30.290974,139.224457 
	C36.147694,142.523331 42.280071,145.560364 47.475483,149.730698 
	C51.337742,152.830902 53.816063,157.620529 57.091866,161.504974 
	C58.227043,162.851074 59.906742,163.737976 61.951317,165.018372 
	C63.043781,165.801743 63.522655,166.401352 64.075447,167.347778 
	C65.616714,169.548141 66.958900,171.521500 68.586273,173.221893 
	C70.244362,174.954407 72.182983,176.418427 73.612595,177.991364 
	C69.637436,175.630066 65.932610,173.432312 62.502754,170.866913 
	C60.432407,169.318359 59.022343,166.856171 56.901608,165.412781 
	C53.347282,162.993698 50.938667,164.364090 50.489983,168.584976 
	C50.357998,169.826645 50.322029,171.848129 49.649979,172.137589 
	C45.361176,173.984833 46.011646,177.607559 46.002544,181.046295 
	C45.992001,185.030853 46.000034,189.015427 46.000000,193.000000 
	C39.978848,193.000000 33.957695,193.000000 27.468273,193.000000 
z"/>
<path fill="#1A77BF" opacity="1.000000" stroke="none" 
	d="
M39.139881,59.065041 
	C36.253399,57.178383 33.407085,56.865990 30.275684,58.728912 
	C29.418041,59.239143 27.919237,58.671638 26.714659,58.598701 
	C26.812525,57.364193 26.434954,55.691864 27.095024,54.975082 
	C29.311272,52.568424 28.875389,50.377399 27.736397,47.676430 
	C27.000135,45.930481 27.036999,43.785019 27.028912,41.817348 
	C26.974285,28.524189 27.000168,15.230699 27.000000,1.468657 
	C33.021152,1.000000 39.042305,1.000000 45.531731,1.468639 
	C46.000935,7.895291 45.958992,13.853840 46.033520,19.810932 
	C46.051720,21.265640 46.009659,23.676929 46.746227,24.015694 
	C52.670807,26.740538 51.058746,32.151276 51.642120,36.751190 
	C51.904037,38.816395 51.888416,40.916801 51.959404,43.352486 
	C49.173214,47.712875 47.474979,53.188049 40.641460,51.413033 
	C40.156879,51.287159 38.541016,53.159382 38.536358,54.107849 
	C38.529736,55.455109 39.530617,56.807323 39.960114,58.328735 
	C39.612625,58.712242 39.386177,58.900574 39.139881,59.065041 
z"/>
<path fill="#1C78BF" opacity="1.000000" stroke="none" 
	d="
M51.998737,43.001232 
	C51.888416,40.916801 51.904037,38.816395 51.642120,36.751190 
	C51.058746,32.151276 52.670807,26.740538 46.746227,24.015694 
	C46.009659,23.676929 46.051720,21.265640 46.033520,19.810932 
	C45.958992,13.853840 46.000935,7.895291 46.000000,1.468639 
	C53.687576,1.000000 61.375153,1.000000 69.531288,1.464544 
	C70.010910,5.072646 69.984711,8.216898 70.043289,11.359571 
	C70.104431,14.639734 71.890106,15.646000 74.576271,14.048484 
	C79.893959,10.885939 85.039978,7.434742 90.675835,3.835357 
	C91.137856,4.265902 92.069534,5.134113 92.800629,6.226632 
	C92.065041,7.270806 91.530037,8.090673 90.715141,9.094833 
	C88.590096,11.179300 86.744957,13.079474 84.519165,14.987526 
	C82.788399,16.021515 81.438286,17.047628 80.058777,18.038960 
	C80.029388,18.004177 80.072990,18.081894 79.722076,18.147217 
	C78.234566,20.106865 77.097977,22.001188 75.805939,24.091831 
	C75.405746,24.514526 75.161003,24.740898 74.547241,24.983545 
	C72.138916,26.146847 70.091080,27.279053 68.062691,28.445072 
	C66.031349,29.612787 64.019409,30.814272 61.682213,32.116879 
	C59.576527,35.485550 57.787601,38.738300 55.652523,42.014153 
	C54.203827,42.358585 53.101284,42.679909 51.998737,43.001232 
z"/>
<path fill="#1C79C0" opacity="1.000000" stroke="none" 
	d="
M46.468658,193.000000 
	C46.000034,189.015427 45.992001,185.030853 46.002544,181.046295 
	C46.011646,177.607559 45.361176,173.984833 49.649979,172.137589 
	C50.322029,171.848129 50.357998,169.826645 50.489983,168.584976 
	C50.938667,164.364090 53.347282,162.993698 56.901608,165.412781 
	C59.022343,166.856171 60.432407,169.318359 62.502754,170.866913 
	C65.932610,173.432312 69.637436,175.630066 73.862907,177.991241 
	C74.666275,177.999405 74.833145,177.999084 75.203369,178.227692 
	C75.936119,179.305054 76.465492,180.153488 76.766495,181.081116 
	C76.691269,181.774231 76.844414,182.388184 77.093536,183.339798 
	C79.459373,184.785187 81.729225,185.892899 84.153610,187.316650 
	C84.872086,189.421799 85.436043,191.210907 86.000000,193.000000 
	C72.979103,193.000000 59.958210,193.000000 46.468658,193.000000 
z"/>
<path fill="#2082C5" opacity="1.000000" stroke="none" 
	d="
M132.531357,1.000000 
	C133.717819,5.156340 134.603363,9.294074 135.067551,13.478549 
	C135.243286,15.062615 134.872620,17.031042 134.017166,18.347357 
	C130.995193,22.997395 131.283707,24.180906 136.332199,26.211800 
	C137.479431,26.673306 138.856079,27.504860 139.331192,28.533665 
	C141.362915,32.933128 142.556946,37.808090 145.093781,41.860260 
	C147.540802,45.768955 148.563431,50.729286 153.609116,53.096344 
	C157.016357,54.694775 160.633377,57.240314 159.995331,62.599930 
	C159.993683,63.005779 159.983780,63.014648 159.652954,62.930161 
	C157.456543,61.308186 155.748291,59.503967 153.691360,58.290962 
	C149.879074,56.042782 145.862976,54.140179 141.953186,52.069633 
	C141.974609,52.045609 141.915115,52.069431 141.872070,51.718704 
	C140.917542,49.898830 140.006058,48.429684 139.077667,46.957809 
	C139.060760,46.955082 139.050613,46.922379 139.015152,46.581371 
	C138.012131,45.148445 137.044556,44.056530 135.891205,42.806419 
	C135.469620,42.421291 135.265686,42.168652 135.219818,41.582619 
	C135.563171,40.182728 135.780319,39.090527 135.912979,37.660278 
	C133.369263,32.778206 130.833099,28.423899 125.398415,26.626101 
	C124.266815,26.251768 123.623291,24.166367 122.918678,22.785887 
	C121.439461,19.887802 120.802589,15.393241 118.511528,14.302648 
	C112.501549,11.441760 111.197784,5.624120 108.000000,1.000000 
	C116.020905,1.000000 124.041809,1.000000 132.531357,1.000000 
z"/>
<path fill="#2082C6" opacity="1.000000" stroke="none" 
	d="
M174.001831,122.003235 
	C171.353897,125.912529 169.185913,130.287079 165.949402,133.625824 
	C160.636154,139.106934 154.412949,143.699753 149.014923,149.107788 
	C146.635956,151.491165 144.784561,154.761215 143.663986,157.967804 
	C141.107040,165.284729 139.090622,172.794357 136.971161,180.258804 
	C135.854752,184.190552 134.983215,188.191818 134.000549,192.580841 
	C126.645744,193.000000 119.291496,193.000000 111.497772,192.639374 
	C115.781555,186.276611 120.493973,180.265884 125.230667,174.274353 
	C131.983459,165.732605 138.807465,157.246124 145.456177,148.624329 
	C146.392670,147.409912 146.509735,145.563599 147.222366,143.825989 
	C147.959091,143.427948 148.479538,143.213669 149.251663,143.143845 
	C158.856079,139.293442 164.344116,130.996124 171.153595,123.728119 
	C172.210358,122.641296 173.103439,121.814064 173.997772,121.240936 
	C173.999954,121.664429 174.000900,121.833832 174.001831,122.003235 
z"/>
<path fill="#1E7DC2" opacity="1.000000" stroke="none" 
	d="
M107.531342,1.000000 
	C111.197784,5.624120 112.501549,11.441760 118.511528,14.302648 
	C120.802589,15.393241 121.439461,19.887802 122.918678,22.785887 
	C123.623291,24.166367 124.266815,26.251768 125.398415,26.626101 
	C130.833099,28.423899 133.369263,32.778206 135.539520,37.660450 
	C134.503464,37.997253 133.756393,37.995842 132.828217,37.715816 
	C128.448959,33.617680 124.250778,29.798157 119.786133,25.817579 
	C118.693237,24.742077 117.866806,23.827627 117.000443,22.562565 
	C115.677834,21.122643 114.395149,20.033331 113.097519,18.930418 
	C113.082573,18.916815 113.056610,18.885847 113.015160,18.520519 
	C112.680412,14.489300 110.667831,12.468945 106.865921,11.825962 
	C106.425743,11.459291 106.209320,11.215745 105.958763,10.639933 
	C105.596786,9.555613 105.299149,8.776725 104.900681,7.726636 
	C103.866669,7.301403 102.933502,7.147371 101.606567,6.908899 
	C98.475609,6.550415 95.738419,6.276369 93.001221,6.002324 
	C92.069534,5.134113 91.137856,4.265902 90.675835,3.835357 
	C85.039978,7.434742 79.893959,10.885939 74.576271,14.048484 
	C71.890106,15.646000 70.104431,14.639734 70.043289,11.359571 
	C69.984711,8.216898 70.010910,5.072646 69.999924,1.464544 
	C71.066673,1.000000 72.133339,1.000000 73.677025,1.303715 
	C75.955124,4.691665 77.100380,3.623459 78.000000,1.000000 
	C87.687561,1.000000 97.375122,1.000000 107.531342,1.000000 
z"/>
<path fill="#1468B3" opacity="1.000000" stroke="none" 
	d="
M38.997822,139.002243 
	C38.743923,138.813522 38.510788,138.601929 38.024296,137.884674 
	C36.832058,136.936768 35.913933,136.471634 34.995804,136.006516 
	C31.153566,132.989304 27.298147,129.988693 23.472679,126.950348 
	C19.380932,123.700531 15.234594,120.511055 11.282750,117.097649 
	C9.723547,115.750885 7.964175,114.053841 7.448789,112.196411 
	C6.205602,107.716042 4.448080,107.641693 1.304613,110.874741 
	C1.000000,105.645073 1.000000,100.290138 1.000000,94.467606 
	C2.109031,93.710892 3.218061,93.421783 4.668243,93.494080 
	C4.846895,99.815994 6.891586,104.832550 11.354396,108.844879 
	C17.862816,114.696350 24.326403,120.597855 30.854574,126.427116 
	C35.632759,130.693756 40.652584,134.704346 45.250587,139.153687 
	C49.075733,142.855148 52.443554,147.029221 55.679153,150.914215 
	C53.893459,149.553391 52.547085,148.122864 50.971069,147.020676 
	C47.035568,144.268402 42.995766,141.665237 38.997822,139.002243 
z"/>
<path fill="#1C76BC" opacity="1.000000" stroke="none" 
	d="
M86.468399,193.000000 
	C85.436043,191.210907 84.872086,189.421799 84.154373,187.061005 
	C84.001099,186.318893 84.001572,186.148453 84.401146,185.981323 
	C85.864426,185.992859 86.928604,186.001114 88.040161,186.373657 
	C89.759727,191.124985 93.899963,190.759903 97.175804,190.582443 
	C98.864227,190.490982 100.404022,187.655594 102.299820,185.915253 
	C103.716003,185.175247 104.843346,184.580032 106.259491,183.815872 
	C110.351311,179.415573 114.154312,175.184219 118.108719,170.662415 
	C119.833305,168.576187 121.406494,166.780411 123.326218,164.966064 
	C125.115067,164.298340 126.557381,163.649170 127.971909,163.371216 
	C124.384941,168.774628 121.242043,174.181061 117.149162,178.733414 
	C113.079857,183.259567 107.193192,186.241043 106.000000,193.000000 
	C99.645599,193.000000 93.291206,193.000000 86.468399,193.000000 
z"/>
<path fill="#1F7DC2" opacity="1.000000" stroke="none" 
	d="
M106.416664,193.000000 
	C107.193192,186.241043 113.079857,183.259567 117.149162,178.733414 
	C121.242043,174.181061 124.384941,168.774628 127.972061,163.371216 
	C128.000000,163.000000 127.999870,162.999802 128.358887,162.971649 
	C135.419983,159.983383 138.955307,154.209808 142.219788,147.773926 
	C143.626419,146.364685 144.809799,145.178848 146.246414,143.996902 
	C146.668472,144.003784 146.837296,144.006775 147.006104,144.009766 
	C146.509735,145.563599 146.392670,147.409912 145.456177,148.624329 
	C138.807465,157.246124 131.983459,165.732605 125.230667,174.274353 
	C120.493973,180.265884 115.781555,186.276611 111.029144,192.639374 
	C109.611107,193.000000 108.222221,193.000000 106.416664,193.000000 
z"/>
<path fill="#2180C4" opacity="1.000000" stroke="none" 
	d="
M174.349136,121.927734 
	C174.000900,121.833832 173.999954,121.664429 174.111832,120.930115 
	C180.623459,113.348351 188.543976,107.358650 190.370331,97.001495 
	C191.497330,97.000755 192.248672,97.000374 193.000000,97.000000 
	C193.000000,98.388893 193.000000,99.777779 192.659882,101.677658 
	C191.213989,104.459152 190.108215,106.729660 189.002441,109.000160 
	C189.002441,109.000160 189.000046,109.499481 188.998810,109.749123 
	C186.601562,112.100113 184.248550,114.253250 181.797134,116.287804 
	C179.484100,118.207512 177.067490,120.002434 174.349136,121.927734 
z"/>
<path fill="#2286C8" opacity="1.000000" stroke="none" 
	d="
M193.000000,96.545891 
	C192.248672,97.000374 191.497330,97.000755 190.367935,96.608093 
	C188.658432,93.147530 187.326981,90.080009 185.996613,86.635895 
	C185.999481,85.506096 186.001266,84.752899 186.003052,83.999695 
	C188.087967,84.993950 190.172867,85.988205 192.628891,86.991234 
	C193.000000,90.030594 193.000000,93.061188 193.000000,96.545891 
z"/>
<path fill="#2286C8" opacity="1.000000" stroke="none" 
	d="
M189.339447,108.933067 
	C190.108215,106.729660 191.213989,104.459152 192.659882,102.094330 
	C193.000000,103.714355 193.000000,105.428719 193.000000,107.571533 
	C191.892151,108.288658 190.784286,108.577316 189.339447,108.933067 
z"/>
<path fill="#1C78BF" opacity="1.000000" stroke="none" 
	d="
M77.600006,1.000000 
	C77.100380,3.623459 75.955124,4.691665 74.077019,1.303715 
	C75.066673,1.000000 76.133339,1.000000 77.600006,1.000000 
z"/>
<path fill="#0951A5" opacity="1.000000" stroke="none" 
	d="
M122.979675,164.984619 
	C121.406494,166.780411 119.833305,168.576187 117.781525,170.754211 
	C113.525520,175.419235 109.748100,179.702026 105.970688,183.984818 
	C104.843346,184.580032 103.716003,185.175247 101.902245,185.979431 
	C98.474792,186.466095 95.733757,186.743790 92.779724,186.832306 
	C92.043465,186.432465 91.520187,186.221817 90.677200,185.993988 
	C89.930817,185.962784 89.504150,185.948761 88.979752,185.616257 
	C87.603096,184.178940 86.324181,183.060104 84.868423,181.668137 
	C83.120422,179.599854 81.549263,177.804718 79.810120,175.728821 
	C77.766167,173.627869 75.890182,171.807648 74.007401,169.993713 
	C74.000610,170.000000 74.016739,169.986710 73.933594,169.658859 
	C71.897537,167.225983 69.944633,165.120956 67.781921,162.828827 
	C67.061668,162.418503 66.551224,162.195267 65.950264,161.640747 
	C63.907219,159.205200 61.954681,157.100906 59.833790,154.728027 
	C58.448273,153.304260 57.231110,152.149109 56.013947,150.993958 
	C52.443554,147.029221 49.075733,142.855148 45.250587,139.153687 
	C40.652584,134.704346 35.632759,130.693756 30.854574,126.427116 
	C24.326403,120.597855 17.862816,114.696350 11.354396,108.844879 
	C6.891586,104.832550 4.846895,99.815994 5.005947,93.428200 
	C6.513091,91.147400 8.023685,89.293877 10.021114,87.038574 
	C11.023726,85.772575 11.539498,84.908356 12.055271,84.044128 
	C12.618878,83.544937 13.182487,83.045746 14.237503,82.223976 
	C16.172703,80.617805 17.616495,79.334213 19.060287,78.050621 
	C19.318762,77.872749 19.552912,77.667175 20.246643,77.163986 
	C23.511089,74.286575 26.291628,71.679085 29.072168,69.071594 
	C32.352993,65.949471 35.633816,62.827343 39.027260,59.385128 
	C39.386177,58.900574 39.612625,58.712242 40.298859,58.221107 
	C43.316799,56.736309 45.913124,55.636272 48.373142,54.287609 
	C50.030186,53.379162 51.801685,52.376080 52.981827,50.963924 
	C55.485081,47.968536 57.432983,44.504353 59.973755,41.546005 
	C64.819557,35.903786 69.920959,30.481094 74.916260,24.967272 
	C75.161003,24.740898 75.405746,24.514526 76.098572,23.931995 
	C77.722099,21.744522 78.897545,19.913208 80.072990,18.081894 
	C80.072990,18.081894 80.029388,18.004177 80.395950,18.010990 
	C82.141609,17.005085 83.520714,15.992368 84.899818,14.979649 
	C86.744957,13.079474 88.590096,11.179300 91.121719,9.084444 
	C96.953255,6.762125 101.471039,8.972282 106.023102,10.945365 
	C106.209320,11.215745 106.425743,11.459291 106.925751,12.159750 
	C109.138298,14.724279 111.097458,16.805061 113.056610,18.885845 
	C113.056610,18.885847 113.082573,18.916815 113.236427,19.213017 
	C114.606972,20.643871 115.823669,21.778524 117.040367,22.913177 
	C117.866806,23.827627 118.693237,24.742077 119.853439,26.152531 
	C124.451729,30.787128 128.716263,34.925720 133.162399,39.298332 
	C133.927200,40.318333 134.510391,41.104321 135.093597,41.890305 
	C135.265686,42.168652 135.469620,42.421291 135.941437,43.127716 
	C137.135178,44.712269 138.092896,45.817326 139.050613,46.922379 
	C139.050613,46.922379 139.060760,46.955082 139.076843,47.317673 
	C140.033661,49.143322 140.974396,50.606377 141.915115,52.069431 
	C141.915115,52.069431 141.974609,52.045609 142.086975,52.374023 
	C148.268280,57.713486 154.319305,62.746460 160.411346,67.729279 
	C166.254669,72.508667 172.140533,77.236031 178.166351,82.168213 
	C178.552597,82.579742 178.802094,82.782356 179.220825,83.243019 
	C180.577042,85.024109 181.785889,86.520195 182.577087,88.068939 
	C180.759659,88.086288 179.359909,88.050964 177.737457,87.923218 
	C177.236237,87.638863 177.057968,87.378334 176.974152,86.678070 
	C175.537003,85.263779 174.105652,84.220612 172.422363,83.085312 
	C171.711731,82.460518 171.253006,81.927864 170.740173,81.044159 
	C169.937866,80.231834 169.189667,79.770569 168.180267,79.200180 
	C167.259964,78.429420 166.600861,77.767776 165.907471,76.759743 
	C163.244949,74.275780 160.616730,72.138199 157.717377,69.903076 
	C156.947906,69.237038 156.449585,68.668549 155.926056,67.752747 
	C151.702362,63.865215 147.460739,60.374397 143.323318,56.764172 
	C141.220535,54.929329 139.266663,52.917149 137.317825,50.914730 
	C135.792419,49.347382 134.378372,47.671677 132.659973,45.915146 
	C131.927444,45.206200 131.449799,44.626228 130.982422,43.685528 
	C128.723969,41.198593 126.455254,39.072392 124.029922,36.853851 
	C123.873314,36.761520 123.761566,36.415504 123.773972,36.053436 
	C120.828773,32.807602 117.871185,29.923830 114.654640,26.913084 
	C113.917061,26.197010 113.438431,25.607912 112.891602,24.781471 
	C112.638718,24.241804 112.370987,24.065771 111.875259,23.948448 
	C111.730339,23.880869 111.637970,23.574690 111.666527,23.201769 
	C109.996651,21.289389 108.298218,19.749931 106.316154,18.063972 
	C104.349159,16.207184 102.665802,14.496899 100.871223,12.585985 
	C100.521004,12.149428 100.237541,12.067862 99.889481,12.141937 
	C99.869339,12.143215 99.847488,12.109281 99.758972,11.777772 
	C94.744537,9.263305 91.514229,10.845031 89.941452,16.429039 
	C88.268425,18.181587 86.735573,19.646551 84.835846,21.101265 
	C83.684364,22.132015 82.899757,23.173019 81.971863,24.508915 
	C79.344223,27.272799 76.859856,29.741789 74.013947,32.209709 
	C72.085899,34.105003 70.519386,36.001362 68.811920,38.202152 
	C65.995865,41.489296 63.320755,44.472008 60.330658,47.559673 
	C59.267391,48.753864 58.519115,49.843098 57.481758,51.084740 
	C54.454983,53.797710 51.717293,56.358280 48.818672,59.099327 
	C48.395058,59.489979 48.095512,59.595604 47.382217,59.526260 
	C46.078335,60.438046 45.151329,61.420242 44.072952,62.681313 
	C41.948921,64.641350 39.976265,66.322502 37.640083,67.994934 
	C35.905434,69.433052 34.534317,70.879898 33.009396,72.612015 
	C30.577520,74.932869 28.299452,76.968468 25.671053,78.998779 
	C23.771450,80.638184 22.222178,82.282867 20.533840,84.208908 
	C18.608387,86.003014 16.821993,87.515770 14.681783,89.018906 
	C12.122815,90.007278 9.002292,90.278824 10.278275,94.399353 
	C10.066249,95.137085 9.889699,95.543015 9.431963,96.080284 
	C8.200611,101.051453 9.880361,103.522804 15.387441,105.096741 
	C17.706398,107.181587 19.730743,109.123611 21.639830,111.317688 
	C22.696898,112.370674 23.869221,113.171600 25.334984,114.114410 
	C27.493046,116.031097 29.357668,117.805908 31.223061,119.942329 
	C33.454105,122.209106 35.684372,124.114265 38.213509,126.172150 
	C41.379147,128.810440 44.245922,131.295990 47.225735,134.119583 
	C48.170750,134.693390 49.002724,134.929169 50.202797,135.208862 
	C52.440437,136.485596 54.309975,137.718460 55.983273,139.197327 
	C56.931007,141.569687 58.074974,143.696030 59.136246,145.886810 
	C59.053547,145.951263 59.198479,145.799728 59.226883,146.123962 
	C59.727085,146.843964 60.198879,147.239746 60.890244,147.752991 
	C61.405720,148.261383 61.701630,148.652283 61.991817,149.378906 
	C63.300144,150.913422 64.614189,152.112213 66.197433,153.442352 
	C67.344208,154.652878 68.221779,155.732086 69.082642,157.178986 
	C70.366982,158.688400 71.668037,159.830093 72.999603,160.968506 
	C73.030113,160.965225 73.027489,161.026535 73.094833,161.254242 
	C73.343025,161.773117 73.604179,161.933731 73.993095,161.967972 
	C74.040535,161.972153 74.033195,162.067123 74.013573,162.419464 
	C76.446121,165.111771 78.898300,167.451721 81.639549,169.943817 
	C85.941788,174.086044 89.954956,178.076172 94.095459,182.373779 
	C97.150230,184.352905 99.433434,183.953003 100.879463,180.436981 
	C101.114616,179.993225 101.343689,179.847641 101.997437,179.799225 
	C104.257446,177.570633 106.157646,175.346954 108.190704,172.839539 
	C109.238693,171.715439 110.153801,170.875092 111.428658,170.023834 
	C112.835823,168.630371 113.883247,167.247803 115.064117,165.570190 
	C116.996841,163.441788 118.796112,161.608444 120.954727,159.769196 
	C124.506752,156.134872 127.699425,152.506470 130.936798,148.930374 
	C130.981491,148.982666 130.874512,148.896149 131.197189,148.845581 
	C131.970673,148.114960 132.421494,147.434921 132.975677,146.484543 
	C133.673462,145.459869 134.267853,144.705536 135.209152,143.829437 
	C136.006424,142.092667 136.456787,140.477661 136.919296,138.643204 
	C136.931442,138.423752 137.112411,138.023163 137.445282,137.955078 
	C139.192841,136.963287 140.607498,136.039566 142.307068,134.950623 
	C143.811676,134.317734 145.031387,133.850067 146.610474,133.431870 
	C147.576187,132.853668 148.182510,132.225998 148.937286,131.311569 
	C153.079620,127.354813 157.073517,123.684822 161.412781,120.000793 
	C162.436905,119.187683 163.115662,118.388618 163.942841,117.309273 
	C166.036346,115.339935 167.981430,113.650864 170.291992,111.973816 
	C172.380676,110.209122 174.103897,108.432419 175.994019,106.379868 
	C178.384232,104.039627 180.607544,101.975227 183.090851,99.895042 
	C183.520218,99.240013 183.689590,98.600777 183.829285,97.597244 
	C183.539139,95.810303 183.278641,94.387650 183.042572,92.551376 
	C183.039352,90.760315 183.011688,89.382881 183.281647,88.192474 
	C187.940201,93.745987 188.561005,97.638664 184.925934,103.082336 
	C182.691269,106.428833 179.557220,109.183990 176.763382,112.144615 
	C174.888702,114.131210 172.902527,116.012581 170.640198,118.035271 
	C168.520615,120.074905 166.727081,122.020309 164.758636,124.121010 
	C164.358383,124.495216 164.165512,124.739723 163.721573,125.149208 
	C162.613678,126.177231 161.789337,127.065887 160.645126,128.034378 
	C158.878555,129.397873 157.431870,130.681564 155.661072,132.050781 
	C153.555008,133.752045 151.773041,135.367783 149.636108,137.060577 
	C141.494171,138.536057 139.074951,145.085831 135.708130,151.172592 
	C133.601730,153.538940 131.772446,155.724838 129.615051,158.003998 
	C127.184494,160.393036 125.082085,162.688828 122.979675,164.984619 
z"/>
<path fill="#1468B3" opacity="1.000000" stroke="none" 
	d="
M28.729567,69.132401 
	C26.291628,71.679085 23.511089,74.286575 20.392448,76.980812 
	C22.831886,74.442772 25.609425,71.817993 28.729567,69.132401 
z"/>
<path fill="#1468B3" opacity="1.000000" stroke="none" 
	d="
M18.711155,78.107254 
	C17.616495,79.334213 16.172703,80.617805 14.395543,81.987450 
	C15.495458,80.770302 16.928740,79.467094 18.711155,78.107254 
z"/>
<path fill="#1468B3" opacity="1.000000" stroke="none" 
	d="
M11.747963,84.152328 
	C11.539498,84.908356 11.023726,85.772575 10.246220,86.803940 
	C10.469875,86.067566 10.955265,85.164047 11.747963,84.152328 
z"/>
<path fill="#196EB7" opacity="1.000000" stroke="none" 
	d="
M55.679153,150.914215 
	C57.231110,152.149109 58.448273,153.304260 59.861511,155.108398 
	C60.373775,157.503220 60.689964,159.249039 61.006157,160.994873 
	C57.832359,158.166702 54.620426,155.379852 51.497295,152.496811 
	C49.157223,150.336624 46.880463,148.101761 44.670372,145.808716 
	C42.766094,143.832962 40.995773,141.728088 39.082024,139.341278 
	C42.995766,141.665237 47.035568,144.268402 50.971069,147.020676 
	C52.547085,148.122864 53.893459,149.553391 55.679153,150.914215 
z"/>
<path fill="#196EB7" opacity="1.000000" stroke="none" 
	d="
M66.040771,161.972031 
	C66.551224,162.195267 67.061668,162.418503 67.811920,163.185608 
	C70.040062,165.815231 72.028404,167.900970 74.016739,169.986710 
	C74.016739,169.986710 74.000610,170.000000 74.002823,170.370911 
	C74.002151,171.495789 73.999275,172.249771 73.630295,172.975555 
	C70.176636,170.965225 67.089081,168.983093 64.001526,167.000961 
	C63.522655,166.401352 63.043781,165.801743 62.283600,165.099548 
	C62.002995,164.245743 62.003700,163.494553 62.408104,162.368988 
	C63.888126,161.987091 64.964447,161.979568 66.040771,161.972031 
z"/>
<path fill="#1468B3" opacity="1.000000" stroke="none" 
	d="
M65.950264,161.640747 
	C64.964447,161.979568 63.888126,161.987091 62.409195,161.993332 
	C61.816788,161.739517 61.604866,161.507172 61.188488,161.144928 
	C60.689964,159.249039 60.373775,157.503220 60.029865,155.377014 
	C61.954681,157.100906 63.907219,159.205200 65.950264,161.640747 
z"/>
<path fill="#196EB7" opacity="1.000000" stroke="none" 
	d="
M35.121807,136.304916 
	C35.913933,136.471634 36.832058,136.936768 37.874367,137.701859 
	C37.081635,137.535660 36.164722,137.069489 35.121807,136.304916 
z"/>
<path fill="#2285C3" opacity="1.000000" stroke="none" 
	d="
M179.073456,82.958008 
	C178.802094,82.782356 178.552597,82.579742 178.085693,81.841461 
	C176.227097,79.225739 174.607803,77.118729 172.993195,75.006920 
	C172.997894,75.002129 173.008850,74.990936 173.008850,74.990936 
	C180.586792,72.674240 182.294739,79.380592 185.904266,83.657761 
	C186.001266,84.752899 185.999481,85.506096 185.713425,86.453255 
	C183.310593,85.417480 181.192032,84.187744 179.073456,82.958008 
z"/>
<path fill="#2285C3" opacity="1.000000" stroke="none" 
	d="
M159.998367,63.001526 
	C161.754211,62.716774 163.505371,62.436275 165.628265,62.077888 
	C168.312943,66.082924 170.625885,70.165848 172.973846,74.619858 
	C173.008850,74.990936 172.997894,75.002129 172.689835,74.856232 
	C168.249115,70.811768 164.116440,66.913208 159.983780,63.014648 
	C159.983780,63.014648 159.993683,63.005779 159.998367,63.001526 
z"/>
<path fill="#1873BC" opacity="1.000000" stroke="none" 
	d="
M64.075447,167.347778 
	C67.089081,168.983093 70.176636,170.965225 73.755295,173.224518 
	C74.499771,173.997879 74.753136,174.494049 75.005371,175.366318 
	C75.002823,176.494522 75.001419,177.246658 75.000015,177.998779 
	C74.833145,177.999084 74.666275,177.999405 74.249092,177.999878 
	C72.182983,176.418427 70.244362,174.954407 68.586273,173.221893 
	C66.958900,171.521500 65.616714,169.548141 64.075447,167.347778 
z"/>
<path fill="#1873BC" opacity="1.000000" stroke="none" 
	d="
M74.547241,24.983545 
	C69.920959,30.481094 64.819557,35.903786 59.973755,41.546005 
	C57.432983,44.504353 55.485081,47.968536 52.981827,50.963924 
	C51.801685,52.376080 50.030186,53.379162 48.373142,54.287609 
	C45.913124,55.636272 43.316799,56.736309 40.439751,58.049797 
	C39.530617,56.807323 38.529736,55.455109 38.536358,54.107849 
	C38.541016,53.159382 40.156879,51.287159 40.641460,51.413033 
	C47.474979,53.188049 49.173214,47.712875 51.959404,43.352486 
	C53.101284,42.679909 54.203827,42.358585 55.937199,41.831802 
	C58.378338,38.417881 60.188652,35.209419 61.998970,32.000957 
	C64.019409,30.814272 66.031349,29.612787 68.062691,28.445072 
	C70.091080,27.279053 72.138916,26.146847 74.547241,24.983545 
z"/>
<path fill="#1973BC" opacity="1.000000" stroke="none" 
	d="
M105.958763,10.639933 
	C101.471039,8.972282 96.953255,6.762125 91.401611,8.900150 
	C91.530037,8.090673 92.065041,7.270806 92.800629,6.226631 
	C95.738419,6.276369 98.475609,6.550415 101.866684,7.100310 
	C103.347549,7.583385 104.174538,7.790610 105.001518,7.997836 
	C105.299149,8.776725 105.596786,9.555613 105.958763,10.639933 
z"/>
<path fill="#1A77BF" opacity="1.000000" stroke="none" 
	d="
M61.682213,32.116879 
	C60.188652,35.209419 58.378338,38.417881 56.283348,41.808693 
	C57.787601,38.738300 59.576527,35.485550 61.682213,32.116879 
z"/>
<path fill="#1873BC" opacity="1.000000" stroke="none" 
	d="
M79.722076,18.147217 
	C78.897545,19.913208 77.722099,21.744522 76.254013,23.735674 
	C77.097977,22.001188 78.234566,20.106865 79.722076,18.147217 
z"/>
<path fill="#1873BC" opacity="1.000000" stroke="none" 
	d="
M84.519165,14.987527 
	C83.520714,15.992368 82.141609,17.005085 80.425339,18.045773 
	C81.438286,17.047628 82.788399,16.021515 84.519165,14.987527 
z"/>
<path fill="#196FB7" opacity="1.000000" stroke="none" 
	d="
M75.203377,178.227692 
	C75.001419,177.246658 75.002823,176.494522 75.360718,175.442017 
	C77.137512,175.430954 78.557800,175.720261 79.978096,176.009567 
	C81.549263,177.804718 83.120422,179.599854 84.824097,182.000854 
	C84.316292,183.404419 83.675987,184.202133 82.774246,184.846420 
	C81.675697,184.127838 80.838593,183.562698 79.821747,182.742859 
	C78.762154,181.991821 77.882301,181.495499 77.001175,180.999588 
	C76.999916,181.000000 76.994873,181.001938 76.994873,181.001938 
	C76.465492,180.153488 75.936119,179.305054 75.203377,178.227692 
z"/>
<path fill="#1A76BF" opacity="1.000000" stroke="none" 
	d="
M80.001480,182.997559 
	C80.838593,183.562698 81.675697,184.127838 82.917358,185.026321 
	C83.527397,185.589127 83.754105,185.795258 84.002045,185.978027 
	C84.001572,186.148453 84.001099,186.318893 83.999847,186.744965 
	C81.729225,185.892899 79.459373,184.785187 77.094757,183.338745 
	C77.000000,183.000000 77.000916,182.999390 77.375961,182.999451 
	C78.501167,182.998856 79.251320,182.998199 80.001480,182.997559 
z"/>
<path fill="#1A76BF" opacity="1.000000" stroke="none" 
	d="
M76.998779,183.001068 
	C76.844414,182.388184 76.691269,181.774231 76.766495,181.081116 
	C76.994873,181.001938 76.999916,181.000000 77.000526,181.332977 
	C77.001060,182.110428 77.000992,182.554916 77.000916,182.999390 
	C77.000916,182.999390 77.000000,183.000000 76.998779,183.001068 
z"/>
<path fill="#1973BC" opacity="1.000000" stroke="none" 
	d="
M159.652954,62.930161 
	C164.116440,66.913208 168.249115,70.811768 172.685150,74.861023 
	C174.607803,77.118729 176.227097,79.225739 177.927063,81.659500 
	C172.140533,77.236031 166.254669,72.508667 160.411346,67.729279 
	C154.319305,62.746460 148.268280,57.713486 142.065552,52.398052 
	C145.862976,54.140179 149.879074,56.042782 153.691360,58.290962 
	C155.748291,59.503967 157.456543,61.308186 159.652954,62.930161 
z"/>
<path fill="#1973BC" opacity="1.000000" stroke="none" 
	d="
M141.872070,51.718704 
	C140.974396,50.606377 140.033661,49.143322 139.093750,47.320404 
	C140.006058,48.429684 140.917542,49.898830 141.872070,51.718704 
z"/>
<path fill="#1C78BF" opacity="1.000000" stroke="none" 
	d="
M135.219818,41.582619 
	C134.510391,41.104321 133.927200,40.318333 133.170563,39.030563 
	C133.001190,38.350662 133.005249,38.172546 133.009308,37.994431 
	C133.756393,37.995842 134.503464,37.997253 135.624008,37.998493 
	C135.780319,39.090527 135.563171,40.182728 135.219818,41.582619 
z"/>
<path fill="#1973BC" opacity="1.000000" stroke="none" 
	d="
M139.015152,46.581371 
	C138.092896,45.817326 137.135178,44.712269 136.127228,43.285912 
	C137.044556,44.056530 138.012131,45.148445 139.015152,46.581371 
z"/>
<path fill="#1A75BD" opacity="1.000000" stroke="none" 
	d="
M179.220825,83.243011 
	C181.192032,84.187744 183.310593,85.417480 185.712341,86.829849 
	C187.326981,90.080009 188.658432,93.147530 189.992249,96.608459 
	C188.543976,107.358650 180.623459,113.348351 174.110596,120.676010 
	C173.103439,121.814064 172.210358,122.641296 170.779755,123.730576 
	C169.494064,123.993172 168.745850,123.993721 168.079346,123.664062 
	C169.096100,121.536240 170.031174,119.738640 170.966248,117.941040 
	C172.902527,116.012581 174.888702,114.131210 176.763382,112.144615 
	C179.557220,109.183990 182.691269,106.428833 184.925934,103.082336 
	C188.561005,97.638664 187.940201,93.745987 183.290527,88.188995 
	C183.001770,87.998489 182.994736,88.016273 182.994736,88.016273 
	C181.785889,86.520195 180.577042,85.024109 179.220825,83.243011 
z"/>
<path fill="#1F7DC2" opacity="1.000000" stroke="none" 
	d="
M167.997650,123.994278 
	C168.745850,123.993721 169.494064,123.993172 170.616089,123.990173 
	C164.344116,130.996124 158.856079,139.293442 149.431061,142.861633 
	C152.240479,139.293701 155.122147,136.152405 158.272415,132.815857 
	C159.348999,131.065247 160.156998,129.509903 160.964996,127.954552 
	C161.789337,127.065887 162.613678,126.177231 163.955368,125.313972 
	C165.315201,124.894112 166.157684,124.448845 167.249542,124.001404 
	C167.498901,123.999222 167.997650,123.994278 167.997650,123.994278 
z"/>
<path fill="#1C76BC" opacity="1.000000" stroke="none" 
	d="
M158.003830,133.011124 
	C155.122147,136.152405 152.240479,139.293701 149.179398,142.717194 
	C148.479538,143.213669 147.959091,143.427948 147.222366,143.825989 
	C146.837296,144.006775 146.668472,144.003784 146.277390,143.641113 
	C147.367111,141.182129 148.679092,139.082825 149.991058,136.983521 
	C151.773041,135.367783 153.555008,133.752045 155.878754,132.241272 
	C156.948303,132.567871 157.476059,132.789490 158.003830,133.011124 
z"/>
<path fill="#1973BC" opacity="1.000000" stroke="none" 
	d="
M132.828217,37.715820 
	C133.005249,38.172546 133.001190,38.350662 132.988983,38.796547 
	C128.716263,34.925720 124.451729,30.787128 120.119896,26.313583 
	C124.250778,29.798157 128.448959,33.617680 132.828217,37.715820 
z"/>
<path fill="#1973BC" opacity="1.000000" stroke="none" 
	d="
M113.015167,18.520517 
	C111.097458,16.805061 109.138298,14.724279 107.119308,12.309710 
	C110.667831,12.468945 112.680412,14.489300 113.015167,18.520517 
z"/>
<path fill="#1973BC" opacity="1.000000" stroke="none" 
	d="
M117.000443,22.562565 
	C115.823669,21.778524 114.606972,20.643871 113.251373,19.226620 
	C114.395149,20.033331 115.677834,21.122643 117.000443,22.562565 
z"/>
<path fill="#1C78BF" opacity="1.000000" stroke="none" 
	d="
M104.900681,7.726635 
	C104.174538,7.790610 103.347549,7.583385 102.260452,7.184750 
	C102.933502,7.147371 103.866669,7.301403 104.900681,7.726635 
z"/>
<path fill="#196FB7" opacity="1.000000" stroke="none" 
	d="
M89.077492,185.934738 
	C89.504150,185.948761 89.930817,185.962784 90.747368,186.227371 
	C91.755745,186.659119 92.374229,186.840317 92.992714,187.021484 
	C95.733757,186.743790 98.474792,186.466095 101.613403,186.124222 
	C100.404022,187.655594 98.864227,190.490982 97.175804,190.582443 
	C93.899963,190.759903 89.759727,191.124985 88.311562,186.357544 
	C88.716217,185.962997 88.896851,185.948868 89.077492,185.934738 
z"/>
<path fill="#1468B3" opacity="1.000000" stroke="none" 
	d="
M106.259491,183.815872 
	C109.748100,179.702026 113.525520,175.419235 117.630127,171.044678 
	C114.154312,175.184219 110.351311,179.415573 106.259491,183.815872 
z"/>
<path fill="#176DB6" opacity="1.000000" stroke="none" 
	d="
M123.326218,164.966064 
	C125.082085,162.688828 127.184494,160.393036 129.607849,158.358200 
	C129.285797,160.079376 128.642838,161.539581 127.999870,162.999802 
	C127.999870,162.999802 128.000000,163.000000 127.999847,163.000000 
	C126.557381,163.649170 125.115067,164.298340 123.326218,164.966064 
z"/>
<path fill="#1468B3" opacity="1.000000" stroke="none" 
	d="
M88.979752,185.616257 
	C88.896851,185.948868 88.716217,185.962997 88.264183,185.993240 
	C86.928604,186.001114 85.864426,185.992859 84.401146,185.981323 
	C83.754105,185.795258 83.527397,185.589127 83.178802,185.179749 
	C83.675987,184.202133 84.316292,183.404419 85.000931,182.273987 
	C86.324181,183.060104 87.603096,184.178940 88.979752,185.616257 
z"/>
<path fill="#1C76BC" opacity="1.000000" stroke="none" 
	d="
M128.358887,162.971649 
	C128.642838,161.539581 129.285797,160.079376 129.935974,158.264954 
	C131.772446,155.724838 133.601730,153.538940 136.040359,151.095673 
	C138.431992,149.891312 140.214264,148.944305 141.996552,147.997284 
	C138.955307,154.209808 135.419983,159.983383 128.358887,162.971649 
z"/>
<path fill="#176DB6" opacity="1.000000" stroke="none" 
	d="
M142.219788,147.773911 
	C140.214264,148.944305 138.431992,149.891312 136.317474,150.915222 
	C139.074951,145.085831 141.494171,138.536057 149.636108,137.060577 
	C148.679092,139.082825 147.367111,141.182129 146.024155,143.637222 
	C144.809799,145.178848 143.626419,146.364685 142.219788,147.773911 
z"/>
<path fill="#E8F0F3" opacity="1.000000" stroke="none" 
	d="
M85.202713,21.111515 
	C86.735573,19.646551 88.268425,18.181587 90.283104,16.346060 
	C93.191307,13.274555 95.925034,11.295626 99.847488,12.109281 
	C99.847488,12.109281 99.869339,12.143215 99.967178,12.376204 
	C100.065025,12.609192 100.492455,12.859417 100.492455,12.859417 
	C100.492455,12.859417 100.982445,12.786611 100.982445,12.786612 
	C102.665802,14.496899 104.349159,16.207184 106.389114,18.400661 
	C108.376465,20.447464 110.007217,22.011078 111.637970,23.574690 
	C111.637970,23.574690 111.730339,23.880869 111.897774,24.215172 
	C112.363411,24.705919 112.661606,24.862366 112.959808,25.018812 
	C113.438431,25.607912 113.917061,26.197010 114.713364,27.248528 
	C117.941208,30.612463 120.851387,33.513985 123.761566,36.415504 
	C123.761566,36.415504 123.873314,36.761520 124.093582,37.177532 
	C126.533287,39.744450 128.752716,41.895355 130.972153,44.046257 
	C131.449799,44.626228 131.927444,45.206200 132.715546,46.270218 
	C135.495361,53.304585 138.769775,58.951591 146.529297,60.409607 
	C147.935852,60.673893 149.064667,62.403992 150.327042,63.450947 
	C152.199280,65.003670 154.076279,66.550636 155.951248,68.100052 
	C156.449585,68.668549 156.947906,69.237038 157.801483,70.230682 
	C160.751724,72.805931 163.346741,74.956032 165.941757,77.106133 
	C166.600861,77.767776 167.259964,78.429420 168.273102,79.524506 
	C169.349533,80.437042 170.071899,80.916122 170.794281,81.395203 
	C171.253006,81.927864 171.711731,82.460518 172.522720,83.405472 
	C174.243301,84.894905 175.611618,85.972054 176.979935,87.049202 
	C177.057968,87.378334 177.236237,87.638863 177.818298,88.244934 
	C179.753937,90.094383 181.386047,91.529694 183.018158,92.965012 
	C183.278641,94.387650 183.539139,95.810303 183.572388,97.749084 
	C183.173706,98.813744 183.002274,99.362282 182.830841,99.910828 
	C180.607544,101.975227 178.384232,104.039627 175.653992,106.432053 
	C173.406876,108.493988 171.666687,110.227898 169.926498,111.961807 
	C167.981430,113.650864 166.036346,115.339935 163.618805,117.354126 
	C162.453354,118.457779 161.760391,119.236313 161.067413,120.014839 
	C157.073517,123.684822 153.079620,127.354813 148.615662,131.358673 
	C147.514099,132.255814 146.882614,132.819107 146.251114,133.382401 
	C145.031387,133.850067 143.811676,134.317734 141.979172,134.846725 
	C140.907654,134.908752 140.448914,134.909454 139.807404,134.765915 
	C139.041138,134.960785 138.457626,135.299881 137.661346,135.850037 
	C137.151917,136.328659 136.855270,136.596252 136.343414,136.947021 
	C136.080856,137.688538 136.033493,138.346878 135.960953,139.370514 
	C135.577942,141.140930 135.220108,142.546066 134.862259,143.951187 
	C134.267853,144.705536 133.673462,145.459869 132.669189,146.557556 
	C131.797714,147.565964 131.336105,148.231049 130.874512,148.896149 
	C130.874512,148.896149 130.981491,148.982666 130.606598,149.008362 
	C127.019608,152.614426 123.807495,156.194763 120.595383,159.775101 
	C118.796112,161.608444 116.996841,163.441788 114.740601,165.640350 
	C113.212051,167.348633 112.140480,168.691681 111.068909,170.034729 
	C110.153801,170.875092 109.238693,171.715439 107.865448,172.914154 
	C105.484077,175.449722 103.560852,177.626923 101.637619,179.804138 
	C101.343689,179.847641 101.114616,179.993225 100.500160,180.523438 
	C98.022652,181.226105 95.995384,181.646194 93.968124,182.066299 
	C89.954956,178.076172 85.941788,174.086044 81.568817,169.608093 
	C78.817070,166.769226 76.425133,164.418167 74.033195,162.067123 
	C74.033195,162.067123 74.040535,161.972153 73.975121,161.709900 
	C73.615631,161.307266 73.321556,161.166901 73.027489,161.026535 
	C73.027489,161.026535 73.030113,160.965225 72.948761,160.646759 
	C71.611389,159.155960 70.355370,157.983627 69.099350,156.811279 
	C68.221779,155.732086 67.344208,154.652878 66.130676,153.111816 
	C64.528999,151.447693 63.263271,150.245438 61.997540,149.043198 
	C61.701630,148.652283 61.405720,148.261383 60.856030,147.433456 
	C60.134327,146.597534 59.666401,146.198639 59.198479,145.799728 
	C59.198479,145.799728 59.053547,145.951263 59.111229,145.536957 
	C58.172447,143.065521 57.175976,141.008423 56.179508,138.951309 
	C54.309975,137.718460 52.440437,136.485596 50.016720,134.945801 
	C48.679260,134.353073 47.895977,134.067322 47.112694,133.781555 
	C44.245922,131.295990 41.379147,128.810440 38.272781,125.927917 
	C38.010948,125.364822 37.988705,125.198669 37.875725,124.799850 
	C37.584667,124.274414 37.308994,124.102402 36.673748,123.882896 
	C34.667126,122.336670 32.944710,120.958687 31.222290,119.580711 
	C29.357668,117.805908 27.493046,116.031097 25.372971,113.861404 
	C25.082790,113.299484 25.048065,113.132462 24.912781,112.736732 
	C24.601768,112.221527 24.319780,112.059532 23.688744,111.893982 
	C22.859182,111.532501 22.307133,111.299072 21.755085,111.065636 
	C19.730743,109.123611 17.706398,107.181587 15.307535,104.762001 
	C13.193061,101.505943 11.453105,98.727448 9.713149,95.948952 
	C9.889699,95.543015 10.066249,95.137085 10.568712,94.277725 
	C12.274951,92.225708 13.655275,90.627113 15.035600,89.028519 
	C16.821993,87.515770 18.608387,86.003014 20.873932,84.146729 
	C22.909185,82.203491 24.465284,80.603775 26.021383,79.004059 
	C28.299452,76.968468 30.577520,74.932869 33.347500,72.569061 
	C35.227474,70.828453 36.615543,69.416061 38.003609,68.003662 
	C39.976265,66.322502 41.948921,64.641350 44.408607,62.642525 
	C45.850124,61.415470 46.804611,60.506073 47.759098,59.596680 
	C48.095512,59.595604 48.395058,59.489979 49.211792,59.133591 
	C53.759529,58.099213 58.542908,58.202354 58.684006,51.946556 
	C59.531227,50.337654 60.088436,48.896183 60.645645,47.454716 
	C63.320755,44.472008 65.995865,41.489296 69.135651,38.122940 
	C71.192055,35.896454 72.783768,34.053616 74.375481,32.210777 
	C76.859856,29.741789 79.344223,27.272799 82.294556,24.440603 
	C83.574585,23.088770 84.388649,22.100142 85.202713,21.111515 
M28.055593,107.956932 
	C28.055593,107.956932 28.153065,107.821503 28.217125,108.525726 
	C29.607792,109.604401 30.998461,110.683075 32.961681,112.074280 
	C37.988064,116.659279 42.839985,121.460594 48.125862,125.723846 
	C50.269688,127.452927 53.358887,128.009872 56.349899,129.412354 
	C56.938049,129.112854 57.526196,128.813339 58.779659,128.069717 
	C60.957077,127.883125 63.134495,127.696533 65.195396,128.528046 
	C65.273468,129.546661 65.351540,130.565277 65.296814,132.237701 
	C64.764366,133.464142 64.231926,134.690598 63.199986,136.124252 
	C63.322544,137.118301 63.445103,138.112335 63.863926,139.760437 
	C69.952415,146.765503 76.040901,153.770569 82.181534,161.462524 
	C83.157578,162.288818 84.133621,163.115097 85.670509,164.290039 
	C88.110222,166.792725 90.669785,169.191483 92.955734,171.827499 
	C95.213699,174.431259 97.007668,174.548630 99.440781,171.916168 
	C108.252953,162.382019 117.386055,153.138870 126.010078,143.440918 
	C127.855560,141.365631 128.075119,137.844482 129.366058,134.505356 
	C128.709671,132.969681 128.053284,131.434006 127.166199,129.310410 
	C127.178879,128.894089 127.191566,128.477783 127.738686,127.912529 
	C128.184189,127.357002 128.629684,126.801476 129.686432,126.077202 
	C130.092209,126.172440 130.498001,126.267685 131.242905,126.921242 
	C132.048569,127.099380 132.854248,127.277519 134.267471,127.598251 
	C134.807663,127.905357 135.347870,128.212463 136.058624,128.945618 
	C136.704483,128.966568 137.350342,128.987534 138.689835,128.852158 
	C141.367447,127.181175 144.045059,125.510201 147.408676,123.814209 
	C148.265732,122.866234 149.122803,121.918266 150.368195,120.427353 
	C157.186432,114.250687 164.004654,108.074020 171.461212,101.832756 
	C171.965897,101.205894 172.470566,100.579033 173.287506,99.463684 
	C173.892502,98.988159 174.497513,98.512634 175.583237,97.992516 
	C175.660797,97.288170 175.738358,96.583832 175.324646,95.355347 
	C171.531311,91.602516 167.737961,87.849686 163.813797,83.461189 
	C163.130768,83.019768 162.447723,82.578346 161.193146,81.813530 
	C155.719330,76.937454 150.138397,72.174843 144.809341,67.145393 
	C141.256790,63.792591 137.764130,63.305645 133.514496,65.720215 
	C132.141418,66.500374 130.207520,66.293457 128.530136,66.538063 
	C128.433792,64.533051 127.539711,62.064053 128.386749,60.607727 
	C131.227173,55.724091 129.670700,52.190239 126.162155,48.598927 
	C117.546394,39.779915 108.980087,30.909163 100.567719,21.896971 
	C98.092590,19.245361 96.401718,19.490948 94.076172,21.962175 
	C84.941658,31.668928 75.547295,41.136040 66.602982,51.012333 
	C65.008408,52.773048 65.092789,56.054283 64.289055,59.245785 
	C64.737022,59.890423 65.184982,60.535061 66.026100,61.736328 
	C66.014565,63.156952 66.003029,64.577576 65.197861,65.956291 
	C63.343117,65.487457 61.510372,64.870392 59.627522,64.590919 
	C57.691650,64.303581 55.706875,64.345718 53.131187,64.616745 
	C44.231930,72.504761 35.289017,80.344360 26.458080,88.308136 
	C23.531616,90.947227 18.917183,93.766022 18.705395,96.759544 
	C18.511974,99.493416 23.229052,102.573982 25.778217,105.505058 
	C25.885271,105.628143 25.953892,105.784645 26.158978,106.554855 
	C26.832165,106.984596 27.505352,107.414345 28.055593,107.956932 
z"/>
<path fill="#396DAF" opacity="1.000000" stroke="none" 
	d="
M155.926056,67.752747 
	C154.076279,66.550636 152.199280,65.003670 150.327042,63.450947 
	C149.064667,62.403992 147.935852,60.673893 146.529297,60.409607 
	C138.769775,58.951591 135.495361,53.304585 132.970428,46.399185 
	C134.378372,47.671677 135.792419,49.347382 137.317825,50.914730 
	C139.266663,52.917149 141.220535,54.929329 143.323318,56.764172 
	C147.460739,60.374397 151.702362,63.865215 155.926056,67.752747 
z"/>
<path fill="#396DAF" opacity="1.000000" stroke="none" 
	d="
M58.393990,52.113995 
	C58.542908,58.202354 53.759529,58.099213 49.372723,58.953110 
	C51.717293,56.358280 54.454983,53.797710 57.632797,51.382713 
	C58.179943,51.723518 58.286968,51.918755 58.393990,52.113995 
z"/>
<path fill="#396DAF" opacity="1.000000" stroke="none" 
	d="
M120.954727,159.769196 
	C123.807495,156.194763 127.019608,152.614426 130.561905,148.956085 
	C127.699425,152.506470 124.506752,156.134872 120.954727,159.769196 
z"/>
<path fill="#396DAF" opacity="1.000000" stroke="none" 
	d="
M123.773972,36.053436 
	C120.851387,33.513985 117.941208,30.612463 114.972305,27.375500 
	C117.871185,29.923830 120.828773,32.807602 123.773972,36.053436 
z"/>
<path fill="#396DAF" opacity="1.000000" stroke="none" 
	d="
M99.758972,11.777772 
	C95.925034,11.295626 93.191307,13.274555 90.423271,16.058475 
	C91.514229,10.845031 94.744537,9.263305 99.758972,11.777772 
z"/>
<path fill="#396DAF" opacity="1.000000" stroke="none" 
	d="
M9.431963,96.080284 
	C11.453105,98.727448 13.193061,101.505943 15.012922,104.619179 
	C9.880361,103.522804 8.200611,101.051453 9.431963,96.080284 
z"/>
<path fill="#396DAF" opacity="1.000000" stroke="none" 
	d="
M165.907471,76.759743 
	C163.346741,74.956032 160.751724,72.805931 158.072601,70.328232 
	C160.616730,72.138199 163.244949,74.275780 165.907471,76.759743 
z"/>
<path fill="#396DAF" opacity="1.000000" stroke="none" 
	d="
M74.013573,162.419464 
	C76.425133,164.418167 78.817070,166.769226 81.279739,169.455978 
	C78.898300,167.451721 76.446121,165.111771 74.013573,162.419464 
z"/>
<path fill="#396DAF" opacity="1.000000" stroke="none" 
	d="
M130.982422,43.685532 
	C128.752716,41.895355 126.533287,39.744450 124.250198,37.269867 
	C126.455254,39.072392 128.723969,41.198593 130.982422,43.685532 
z"/>
<path fill="#176DB6" opacity="1.000000" stroke="none" 
	d="
M168.079346,123.664062 
	C167.997650,123.994278 167.498901,123.999222 166.905457,123.997192 
	C165.852509,123.985352 165.393021,123.975525 164.933533,123.965714 
	C166.727081,122.020309 168.520615,120.074905 170.640198,118.035271 
	C170.031174,119.738640 169.096100,121.536240 168.079346,123.664062 
z"/>
<path fill="#1468B3" opacity="1.000000" stroke="none" 
	d="
M79.810120,175.728821 
	C78.557800,175.720261 77.137512,175.430954 75.361862,175.065948 
	C74.753136,174.494049 74.499771,173.997879 74.121399,173.252716 
	C73.999275,172.249771 74.002151,171.495789 74.009613,170.364624 
	C75.890182,171.807648 77.766167,173.627869 79.810120,175.728821 
z"/>
<path fill="#396DAF" opacity="1.000000" stroke="none" 
	d="
M101.997437,179.799225 
	C103.560852,177.626923 105.484077,175.449722 107.732574,173.197891 
	C106.157646,175.346954 104.257446,177.570633 101.997437,179.799225 
z"/>
<path fill="#1468B3" opacity="1.000000" stroke="none" 
	d="
M73.933594,169.658859 
	C72.028404,167.900970 70.040062,165.815231 68.021729,163.372711 
	C69.944633,165.120956 71.897537,167.225983 73.933594,169.658859 
z"/>
<path fill="#396DAF" opacity="1.000000" stroke="none" 
	d="
M31.223063,119.942329 
	C32.944710,120.958687 34.667126,122.336670 36.751522,124.124794 
	C37.397823,124.700798 37.682140,124.866661 37.966461,125.032516 
	C37.988705,125.198669 38.010948,125.364822 37.973919,125.775208 
	C35.684372,124.114265 33.454105,122.209106 31.223063,119.942329 
z"/>
<path fill="#396DAF" opacity="1.000000" stroke="none" 
	d="
M183.042572,92.551376 
	C181.386047,91.529694 179.753937,90.094383 178.040985,88.337357 
	C179.359909,88.050964 180.759659,88.086288 182.577087,88.068939 
	C182.994736,88.016273 183.001770,87.998489 182.992889,88.001968 
	C183.011688,89.382881 183.039352,90.760315 183.042572,92.551376 
z"/>
<path fill="#176DB6" opacity="1.000000" stroke="none" 
	d="
M158.272415,132.815857 
	C157.476059,132.789490 156.948303,132.567871 156.202850,132.155731 
	C157.431870,130.681564 158.878555,129.397873 160.645126,128.034378 
	C160.156998,129.509903 159.348999,131.065247 158.272415,132.815857 
z"/>
<path fill="#396DAF" opacity="1.000000" stroke="none" 
	d="
M14.681783,89.018906 
	C13.655275,90.627113 12.274951,92.225708 10.604187,93.945938 
	C9.002292,90.278824 12.122815,90.007278 14.681783,89.018906 
z"/>
<path fill="#396DAF" opacity="1.000000" stroke="none" 
	d="
M74.013947,32.209709 
	C72.783768,34.053616 71.192055,35.896454 69.276611,37.818508 
	C70.519386,36.001362 72.085899,34.105003 74.013947,32.209709 
z"/>
<path fill="#396DAF" opacity="1.000000" stroke="none" 
	d="
M55.983273,139.197327 
	C57.175976,141.008423 58.172447,143.065521 59.193928,145.472504 
	C58.074974,143.696030 56.931007,141.569687 55.983273,139.197327 
z"/>
<path fill="#396DAF" opacity="1.000000" stroke="none" 
	d="
M170.291992,111.973816 
	C171.666687,110.227898 173.406876,108.493988 175.487076,106.707901 
	C174.103897,108.432419 172.380676,110.209122 170.291992,111.973816 
z"/>
<path fill="#396DAF" opacity="1.000000" stroke="none" 
	d="
M25.671053,78.998779 
	C24.465284,80.603775 22.909185,82.203491 21.012995,83.865379 
	C22.222178,82.282867 23.771450,80.638184 25.671053,78.998779 
z"/>
<path fill="#396DAF" opacity="1.000000" stroke="none" 
	d="
M94.095459,182.373779 
	C95.995384,181.646194 98.022652,181.226105 100.429214,180.719559 
	C99.433434,183.953003 97.150230,184.352905 94.095459,182.373779 
z"/>
<path fill="#396DAF" opacity="1.000000" stroke="none" 
	d="
M111.666527,23.201769 
	C110.007217,22.011078 108.376465,20.447464 106.672745,18.547161 
	C108.298218,19.749931 109.996651,21.289389 111.666527,23.201769 
z"/>
<path fill="#396DAF" opacity="1.000000" stroke="none" 
	d="
M61.991817,149.378906 
	C63.263271,150.245438 64.528999,151.447693 65.861481,152.980484 
	C64.614189,152.112213 63.300144,150.913422 61.991817,149.378906 
z"/>
<path fill="#396DAF" opacity="1.000000" stroke="none" 
	d="
M37.640083,67.994934 
	C36.615543,69.416061 35.227474,70.828453 33.501305,72.283798 
	C34.534317,70.879898 35.905434,69.433052 37.640083,67.994934 
z"/>
<path fill="#396DAF" opacity="1.000000" stroke="none" 
	d="
M111.428658,170.023834 
	C112.140480,168.691681 113.212051,167.348633 114.607147,165.935410 
	C113.883247,167.247803 112.835823,168.630371 111.428658,170.023834 
z"/>
<path fill="#396DAF" opacity="1.000000" stroke="none" 
	d="
M176.974152,86.678070 
	C175.611618,85.972054 174.243301,84.894905 172.774628,83.497597 
	C174.105652,84.220612 175.537003,85.263779 176.974152,86.678070 
z"/>
<path fill="#396DAF" opacity="1.000000" stroke="none" 
	d="
M136.558609,136.863831 
	C136.855270,136.596252 137.151917,136.328659 137.955826,135.891632 
	C138.972107,135.451508 139.481140,135.180832 139.990173,134.910141 
	C140.448914,134.909454 140.907654,134.908752 141.694275,135.011963 
	C140.607498,136.039566 139.192841,136.963287 137.300644,137.668259 
	C136.734940,137.254272 136.646774,137.059052 136.558609,136.863831 
z"/>
<path fill="#396DAF" opacity="1.000000" stroke="none" 
	d="
M69.082642,157.178986 
	C70.355370,157.983627 71.611389,159.155960 72.918251,160.650055 
	C71.668037,159.830093 70.366982,158.688400 69.082642,157.178986 
z"/>
<path fill="#B6CFE6" opacity="1.000000" stroke="none" 
	d="
M58.684006,51.946556 
	C58.286968,51.918755 58.179943,51.723518 57.921883,51.230309 
	C58.519115,49.843098 59.267391,48.753864 60.330658,47.559673 
	C60.088436,48.896183 59.531227,50.337654 58.684006,51.946556 
z"/>
<path fill="#396DAF" opacity="1.000000" stroke="none" 
	d="
M21.639828,111.317688 
	C22.307133,111.299072 22.859182,111.532501 23.777042,112.132248 
	C24.433014,112.654190 24.723175,112.809814 25.013338,112.965439 
	C25.048065,113.132462 25.082790,113.299484 25.079531,113.719521 
	C23.869221,113.171600 22.696898,112.370674 21.639828,111.317688 
z"/>
<path fill="#396DAF" opacity="1.000000" stroke="none" 
	d="
M47.382217,59.526260 
	C46.804611,60.506073 45.850124,61.415470 44.559982,62.363651 
	C45.151329,61.420242 46.078335,60.438046 47.382217,59.526260 
z"/>
<path fill="#396DAF" opacity="1.000000" stroke="none" 
	d="
M135.209152,143.829437 
	C135.220108,142.546066 135.577942,141.140930 136.190277,139.328705 
	C136.444763,138.921616 136.907150,138.862656 136.907150,138.862656 
	C136.456787,140.477661 136.006424,142.092667 135.209152,143.829437 
z"/>
<path fill="#396DAF" opacity="1.000000" stroke="none" 
	d="
M84.835846,21.101261 
	C84.388649,22.100142 83.574585,23.088770 82.437836,24.145710 
	C82.899757,23.173019 83.684364,22.132015 84.835846,21.101261 
z"/>
<path fill="#1A75BD" opacity="1.000000" stroke="none" 
	d="
M164.758636,124.121002 
	C165.393021,123.975525 165.852509,123.985352 166.656082,123.999374 
	C166.157684,124.448845 165.315201,124.894112 164.238907,125.174606 
	C164.165512,124.739723 164.358383,124.495216 164.758636,124.121002 
z"/>
<path fill="#396DAF" opacity="1.000000" stroke="none" 
	d="
M161.412781,120.000793 
	C161.760391,119.236313 162.453354,118.457779 163.470367,117.634399 
	C163.115662,118.388618 162.436905,119.187683 161.412781,120.000793 
z"/>
<path fill="#396DAF" opacity="1.000000" stroke="none" 
	d="
M183.090851,99.895035 
	C183.002274,99.362282 183.173706,98.813744 183.602051,98.113373 
	C183.689590,98.600777 183.520218,99.240013 183.090851,99.895035 
z"/>
<path fill="#1468B3" opacity="1.000000" stroke="none" 
	d="
M92.779724,186.832306 
	C92.374229,186.840317 91.755745,186.659119 91.067093,186.244553 
	C91.520187,186.221817 92.043465,186.432465 92.779724,186.832306 
z"/>
<path fill="#396DAF" opacity="1.000000" stroke="none" 
	d="
M170.740173,81.044159 
	C170.071899,80.916122 169.349533,80.437042 168.534302,79.633629 
	C169.189667,79.770569 169.937866,80.231834 170.740173,81.044159 
z"/>
<path fill="#396DAF" opacity="1.000000" stroke="none" 
	d="
M146.610474,133.431870 
	C146.882614,132.819107 147.514099,132.255814 148.467224,131.645416 
	C148.182510,132.225998 147.576187,132.853668 146.610474,133.431870 
z"/>
<path fill="#396DAF" opacity="1.000000" stroke="none" 
	d="
M47.225739,134.119583 
	C47.895977,134.067322 48.679260,134.353073 49.648621,134.901901 
	C49.002724,134.929169 48.170750,134.693390 47.225739,134.119583 
z"/>
<path fill="#B6CFE6" opacity="1.000000" stroke="none" 
	d="
M136.919296,138.643204 
	C136.907150,138.862656 136.444763,138.921616 136.215454,138.963409 
	C136.033493,138.346878 136.080856,137.688538 136.343414,136.947021 
	C136.646774,137.059052 136.734940,137.254272 136.967773,137.736328 
	C137.112411,138.023163 136.931442,138.423752 136.919296,138.643204 
z"/>
<path fill="#396DAF" opacity="1.000000" stroke="none" 
	d="
M131.197189,148.845581 
	C131.336105,148.231049 131.797714,147.565964 132.565826,146.827881 
	C132.421494,147.434921 131.970673,148.114960 131.197189,148.845581 
z"/>
<path fill="#396DAF" opacity="1.000000" stroke="none" 
	d="
M59.226883,146.123962 
	C59.666401,146.198639 60.134327,146.597534 60.636459,147.315979 
	C60.198879,147.239746 59.727085,146.843964 59.226883,146.123962 
z"/>
<path fill="#396DAF" opacity="1.000000" stroke="none" 
	d="
M100.871223,12.585985 
	C100.982445,12.786611 100.492455,12.859417 100.492455,12.859417 
	C100.492455,12.859417 100.065025,12.609192 99.987320,12.374926 
	C100.237541,12.067862 100.521004,12.149428 100.871223,12.585985 
z"/>
<path fill="#396DAF" opacity="1.000000" stroke="none" 
	d="
M73.094833,161.254242 
	C73.321556,161.166901 73.615631,161.307266 73.927681,161.705719 
	C73.604179,161.933731 73.343025,161.773117 73.094833,161.254242 
z"/>
<path fill="#396DAF" opacity="1.000000" stroke="none" 
	d="
M112.891602,24.781471 
	C112.661606,24.862366 112.363411,24.705919 112.042694,24.282749 
	C112.370987,24.065771 112.638718,24.241804 112.891602,24.781471 
z"/>
<path fill="#1873BC" opacity="1.000000" stroke="none" 
	d="
M77.375961,182.999451 
	C77.000992,182.554916 77.001060,182.110428 77.001785,181.332565 
	C77.882301,181.495499 78.762154,181.991821 79.821747,182.742859 
	C79.251320,182.998199 78.501167,182.998856 77.375961,182.999451 
z"/>
<path fill="#1A5CA9" opacity="1.000000" stroke="none" 
	d="
M82.129387,160.775635 
	C76.040901,153.770569 69.952415,146.765503 63.841015,139.046539 
	C63.778561,137.527451 63.739021,136.722244 63.699478,135.917038 
	C64.231926,134.690598 64.764366,133.464142 65.627258,131.732773 
	C65.742432,129.988541 65.527168,128.749237 65.311913,127.509941 
	C63.134495,127.696533 60.957077,127.883125 58.163219,128.213715 
	C57.037159,128.605194 56.527534,128.852676 56.017914,129.100174 
	C53.358887,128.009872 50.269688,127.452927 48.125862,125.723846 
	C42.839985,121.460594 37.988064,116.659279 32.566963,111.603683 
	C30.832521,110.029221 29.492794,108.925362 28.153065,107.821503 
	C28.153065,107.821503 28.055593,107.956932 28.032776,107.604813 
	C27.353443,106.810333 26.696928,106.367958 26.040413,105.925583 
	C25.953892,105.784645 25.885271,105.628143 25.778217,105.505058 
	C23.229052,102.573982 18.511974,99.493416 18.705395,96.759544 
	C18.917183,93.766022 23.531616,90.947227 26.458080,88.308136 
	C35.289017,80.344360 44.231930,72.504761 53.837830,64.546082 
	C56.699722,65.252106 58.804436,66.331757 61.027397,66.702629 
	C62.599167,66.964874 64.331070,66.267296 65.991493,65.998199 
	C66.003029,64.577576 66.014565,63.156952 65.869499,61.154716 
	C65.275902,59.926540 64.838913,59.279980 64.401917,58.633419 
	C65.092789,56.054283 65.008408,52.773048 66.602982,51.012333 
	C75.547295,41.136040 84.941658,31.668928 94.076172,21.962175 
	C96.401718,19.490948 98.092590,19.245361 100.567719,21.896971 
	C108.980087,30.909163 117.546394,39.779915 126.162155,48.598927 
	C129.670700,52.190239 131.227173,55.724091 128.386749,60.607727 
	C127.539711,62.064053 128.433792,64.533051 128.530151,66.538063 
	C130.207520,66.293457 132.141418,66.500374 133.514496,65.720215 
	C137.764130,63.305645 141.256790,63.792591 144.809341,67.145393 
	C150.138397,72.174843 155.719330,76.937454 161.562561,82.277771 
	C162.602859,83.193626 163.273743,83.645241 163.944626,84.096863 
	C167.737961,87.849686 171.531311,91.602516 175.402740,95.960281 
	C175.354736,97.055847 175.228622,97.546478 175.102509,98.037117 
	C174.497513,98.512634 173.892502,98.988159 172.823822,99.758675 
	C171.847717,100.668221 171.335297,101.282784 170.822876,101.897354 
	C164.004654,108.074020 157.186432,114.250687 149.849487,120.735451 
	C148.461426,121.975441 147.592041,122.907333 146.722672,123.839226 
	C144.045059,125.510201 141.367447,127.181175 138.122711,128.745804 
	C136.999741,128.599487 136.443893,128.559540 135.888062,128.519577 
	C135.347870,128.212463 134.807663,127.905357 133.769135,127.276154 
	C132.481781,126.757019 131.692780,126.559975 130.903778,126.362930 
	C130.498001,126.267685 130.092209,126.172440 129.056946,126.093208 
	C128.019730,126.759964 127.611992,127.410713 127.204247,128.061462 
	C127.191566,128.477783 127.178879,128.894089 127.217926,129.945984 
	C127.861000,132.050842 128.452347,133.520126 129.043701,134.989410 
	C128.075119,137.844482 127.855560,141.365631 126.010078,143.440918 
	C117.386055,153.138870 108.252953,162.382019 99.440781,171.916168 
	C97.007668,174.548630 95.213699,174.431259 92.955734,171.827499 
	C90.669785,169.191483 88.110222,166.792725 85.328751,163.795624 
	C84.034454,162.459335 83.081924,161.617493 82.129387,160.775635 
M115.672035,45.454361 
	C114.450325,44.301373 113.228622,43.148388 111.648964,41.435646 
	C108.426704,37.968521 105.204445,34.501396 101.611351,30.433176 
	C98.848602,27.562574 96.211342,26.408659 93.370399,31.218819 
	C89.752655,34.806622 86.049850,38.313541 82.540367,42.004288 
	C78.805878,45.931660 75.152130,49.947254 71.669640,54.097603 
	C70.111526,55.954525 69.297997,58.216942 72.050560,60.866741 
	C72.060043,62.572704 72.069527,64.278664 71.708427,66.536369 
	C70.146637,68.364502 68.584846,70.192635 66.125061,72.006943 
	C63.813339,71.927071 61.437954,71.475304 59.205330,71.857491 
	C56.121826,72.385323 52.478313,72.735619 50.249741,74.581024 
	C43.684704,80.017288 37.588322,86.041275 31.519012,92.047935 
	C26.113201,97.397957 26.252897,99.025528 31.676239,104.153503 
	C32.392807,104.831047 33.218086,105.393623 34.363583,106.563019 
	C40.405239,111.661095 46.291031,116.968513 52.620121,121.680519 
	C53.885445,122.622551 56.841648,121.293419 59.899967,121.003395 
	C62.251740,121.010216 64.603508,121.017029 67.176582,121.581711 
	C67.782593,122.056961 68.388603,122.532219 69.249466,123.505760 
	C69.514381,123.998779 69.779305,124.491791 70.217422,125.556999 
	C70.797813,126.059982 71.378204,126.562965 71.966324,127.924141 
	C71.857941,131.844803 70.246429,136.632446 71.916245,139.527451 
	C77.457481,149.134399 85.417694,156.925812 94.149498,164.673157 
	C96.249252,168.015869 97.794998,167.168808 99.680405,163.836807 
	C101.148155,161.912933 102.615906,159.989044 104.666122,157.739563 
	C109.762161,152.493134 114.858208,147.246689 120.391914,141.433578 
	C123.601578,138.740143 123.573395,135.500610 121.982872,131.123611 
	C121.992676,129.085739 122.002487,127.047867 122.499878,124.518700 
	C125.343491,123.291344 128.187103,122.063995 131.683548,120.916496 
	C132.121292,120.940857 132.559052,120.965218 133.629791,121.327789 
	C136.898804,123.449707 139.711502,123.188614 142.453903,120.175331 
	C143.990234,118.487259 146.109680,117.329918 148.506409,115.644455 
	C149.318802,114.747917 150.131195,113.851379 151.500336,112.592262 
	C154.675110,109.403099 157.849869,106.213936 161.635208,102.719727 
	C167.109543,99.189377 168.237183,95.965302 164.810577,92.552208 
	C159.810547,87.571892 154.746384,82.617271 149.336044,78.098961 
	C144.405045,73.980949 139.112564,70.121994 131.919556,72.901497 
	C130.754730,73.351601 129.297791,73.045746 127.425766,72.931763 
	C126.952927,72.620354 126.480080,72.308945 125.850494,71.360168 
	C124.908104,70.564224 123.965721,69.768272 122.977531,68.184792 
	C122.639755,66.117676 122.301987,64.050568 122.389893,61.399185 
	C124.242371,57.319771 124.678947,53.570389 119.827805,50.372871 
	C118.555443,48.912170 117.283081,47.451466 115.672035,45.454361 
z"/>
<path fill="#99B8D8" opacity="1.000000" stroke="none" 
	d="
M65.594681,65.977249 
	C64.331070,66.267296 62.599167,66.964874 61.027397,66.702629 
	C58.804436,66.331757 56.699722,65.252106 54.143982,64.359543 
	C55.706875,64.345718 57.691650,64.303581 59.627522,64.590919 
	C61.510372,64.870392 63.343117,65.487457 65.594681,65.977249 
z"/>
<path fill="#B8D0E6" opacity="1.000000" stroke="none" 
	d="
M28.185095,108.173615 
	C29.492794,108.925362 30.832521,110.029221 32.280685,111.447418 
	C30.998461,110.683075 29.607792,109.604401 28.185095,108.173615 
z"/>
<path fill="#B8D0E6" opacity="1.000000" stroke="none" 
	d="
M129.204880,134.747375 
	C128.452347,133.520126 127.861000,132.050842 127.333282,130.239944 
	C128.053284,131.434006 128.709671,132.969681 129.204880,134.747375 
z"/>
<path fill="#B8D0E6" opacity="1.000000" stroke="none" 
	d="
M82.155457,161.119080 
	C83.081924,161.617493 84.034454,162.459335 85.048325,163.621292 
	C84.133621,163.115097 83.157578,162.288818 82.155457,161.119080 
z"/>
<path fill="#B8D0E6" opacity="1.000000" stroke="none" 
	d="
M147.065674,123.826721 
	C147.592041,122.907333 148.461426,121.975441 149.655334,121.006920 
	C149.122803,121.918266 148.265732,122.866234 147.065674,123.826721 
z"/>
<path fill="#B8D0E6" opacity="1.000000" stroke="none" 
	d="
M65.253654,128.018997 
	C65.527168,128.749237 65.742432,129.988541 65.693657,131.405869 
	C65.351540,130.565277 65.273468,129.546661 65.253654,128.018997 
z"/>
<path fill="#B8D0E6" opacity="1.000000" stroke="none" 
	d="
M63.449730,136.020645 
	C63.739021,136.722244 63.778561,137.527451 63.692886,138.719513 
	C63.445103,138.112335 63.322544,137.118301 63.449730,136.020645 
z"/>
<path fill="#B8D0E6" opacity="1.000000" stroke="none" 
	d="
M56.183907,129.256256 
	C56.527534,128.852676 57.037159,128.605194 57.830563,128.435776 
	C57.526196,128.813339 56.938049,129.112854 56.183907,129.256256 
z"/>
<path fill="#B8D0E6" opacity="1.000000" stroke="none" 
	d="
M131.073334,126.642082 
	C131.692780,126.559975 132.481781,126.757019 133.465347,127.204865 
	C132.854248,127.277519 132.048569,127.099380 131.073334,126.642082 
z"/>
<path fill="#B8D0E6" opacity="1.000000" stroke="none" 
	d="
M127.471466,127.987000 
	C127.611992,127.410713 128.019730,126.759964 128.751328,126.177582 
	C128.629684,126.801476 128.184189,127.357002 127.471466,127.987000 
z"/>
<path fill="#B8D0E6" opacity="1.000000" stroke="none" 
	d="
M163.879211,83.779022 
	C163.273743,83.645241 162.602859,83.193626 161.848328,82.439468 
	C162.447723,82.578346 163.130768,83.019768 163.879211,83.779022 
z"/>
<path fill="#B8D0E6" opacity="1.000000" stroke="none" 
	d="
M175.342865,98.014816 
	C175.228622,97.546478 175.354736,97.055847 175.648376,96.222351 
	C175.738358,96.583832 175.660797,97.288170 175.342865,98.014816 
z"/>
<path fill="#B8D0E6" opacity="1.000000" stroke="none" 
	d="
M135.973343,128.732605 
	C136.443893,128.559540 136.999741,128.599487 137.775879,128.823975 
	C137.350342,128.987534 136.704483,128.966568 135.973343,128.732605 
z"/>
<path fill="#B8D0E6" opacity="1.000000" stroke="none" 
	d="
M171.142044,101.865051 
	C171.335297,101.282784 171.847717,100.668221 172.667694,100.002914 
	C172.470566,100.579033 171.965897,101.205894 171.142044,101.865051 
z"/>
<path fill="#B8D0E6" opacity="1.000000" stroke="none" 
	d="
M26.099695,106.240219 
	C26.696928,106.367958 27.353443,106.810333 28.094250,107.548401 
	C27.505352,107.414345 26.832165,106.984596 26.099695,106.240219 
z"/>
<path fill="#B6CFE6" opacity="1.000000" stroke="none" 
	d="
M139.807404,134.765915 
	C139.481140,135.180832 138.972107,135.451508 138.168579,135.680573 
	C138.457626,135.299881 139.041138,134.960785 139.807404,134.765915 
z"/>
<path fill="#99B8D8" opacity="1.000000" stroke="none" 
	d="
M64.345490,58.939602 
	C64.838913,59.279980 65.275902,59.926540 65.672920,60.876400 
	C65.184982,60.535061 64.737022,59.890423 64.345490,58.939602 
z"/>
<path fill="#B6CFE6" opacity="1.000000" stroke="none" 
	d="
M37.875721,124.799858 
	C37.682140,124.866661 37.397823,124.700798 37.035728,124.293045 
	C37.308994,124.102402 37.584667,124.274414 37.875721,124.799858 
z"/>
<path fill="#B6CFE6" opacity="1.000000" stroke="none" 
	d="
M24.912781,112.736732 
	C24.723175,112.809814 24.433014,112.654190 24.054554,112.260300 
	C24.319780,112.059532 24.601768,112.221527 24.912781,112.736732 
z"/>
<path fill="#1B77BE" opacity="1.000000" stroke="none" 
	d="
M66.955284,121.023842 
	C64.603508,121.017029 62.251740,121.010216 59.089691,120.976334 
	C54.178654,118.602440 49.825951,116.594604 46.060783,113.796257 
	C43.294098,111.739990 40.676853,108.960037 39.149910,105.921265 
	C37.894978,103.423836 36.953243,99.025314 38.270992,97.275604 
	C44.542259,88.948540 50.302631,79.605583 62.522358,78.667801 
	C65.188095,78.463219 68.223083,77.167030 70.202965,75.388405 
	C72.812973,73.043701 74.677277,69.749695 72.079018,65.984627 
	C72.069527,64.278664 72.060043,62.572704 72.364899,60.311172 
	C77.357956,53.680573 81.924873,47.514603 86.761566,41.568054 
	C89.261147,38.494915 92.239586,35.811260 95.331436,32.961967 
	C96.100792,32.970924 96.540398,32.969551 97.317848,33.056091 
	C100.768784,35.430714 103.881859,37.717419 107.033737,40.350353 
	C108.711754,42.133694 110.350960,43.570805 111.991760,45.256508 
	C111.993347,45.505100 111.997894,46.002281 111.997215,46.335930 
	C111.996063,47.114494 111.995590,47.559418 111.628784,47.975906 
	C109.162598,46.491722 106.745064,45.337582 105.022629,43.523472 
	C99.927444,38.157097 97.477020,37.965340 92.341492,43.162498 
	C89.551353,45.986134 86.683762,48.741512 84.024757,51.684570 
	C79.679131,56.494446 77.992821,61.933971 80.120827,67.735100 
	C82.726883,67.080093 84.865562,66.542557 87.004318,66.339981 
	C87.006310,67.121902 87.008217,67.568840 86.918663,68.344116 
	C85.443817,70.278755 84.183372,72.014320 82.654953,73.468155 
	C77.156685,78.698120 71.567963,83.833008 65.679230,89.093163 
	C64.577942,90.467926 63.810833,91.753357 63.031288,93.485718 
	C63.025326,96.617271 63.031796,99.301880 62.852634,102.245293 
	C63.206394,103.925842 63.388432,105.675636 64.343391,106.715897 
	C70.366890,113.277412 76.425125,119.821098 82.784424,126.051674 
	C84.670013,127.899094 87.562500,128.718811 90.134628,130.295258 
	C90.850540,131.721115 91.425415,132.861160 91.796509,134.270691 
	C89.164085,134.342438 86.737183,134.024323 84.306183,133.989273 
	C82.680534,133.965820 80.342949,133.741364 79.557373,134.660767 
	C77.495575,137.073807 79.690140,143.376190 82.100494,145.681305 
	C84.866547,148.326584 87.638451,151.340042 89.241058,154.743027 
	C91.882866,160.352646 94.102051,161.431335 99.988617,158.579941 
	C101.161545,158.011795 102.708931,158.216721 104.083649,158.065155 
	C102.615906,159.989044 101.148155,161.912933 98.934853,163.924332 
	C96.777222,164.020065 95.365135,164.028259 93.953056,164.036453 
	C85.417694,156.925812 77.457481,149.134399 71.916245,139.527451 
	C70.246429,136.632446 71.857941,131.844803 71.877472,127.205055 
	C71.207153,125.985580 70.625687,125.485199 70.044220,124.984810 
	C69.779305,124.491791 69.514381,123.998779 69.021667,122.971405 
	C68.181007,121.965981 67.568146,121.494911 66.955284,121.023842 
z"/>
<path fill="#1E7DC2" opacity="1.000000" stroke="none" 
	d="
M87.004234,66.005013 
	C84.865562,66.542557 82.726883,67.080093 80.120827,67.735100 
	C77.992821,61.933971 79.679131,56.494446 84.024757,51.684570 
	C86.683762,48.741512 89.551353,45.986134 92.341492,43.162498 
	C97.477020,37.965340 99.927444,38.157097 105.022629,43.523472 
	C106.745064,45.337582 109.162598,46.491722 111.837646,48.166992 
	C112.941788,48.924431 113.470741,49.462345 114.083969,50.340668 
	C116.766907,54.448536 119.365562,58.215992 121.964218,61.983452 
	C122.301987,64.050568 122.639755,66.117676 123.070755,68.901703 
	C124.111725,70.411598 125.059479,71.204567 126.007233,71.997543 
	C126.480080,72.308945 126.952927,72.620354 127.849609,73.333054 
	C130.008667,74.504395 131.693665,75.430008 133.490219,76.010017 
	C136.614487,77.018654 140.311554,77.082901 142.870056,78.846466 
	C148.713425,82.874313 154.238388,87.451157 159.411850,92.316292 
	C161.207367,94.004784 164.936935,96.566010 160.926605,99.681953 
	C154.409424,92.238426 148.267715,84.738319 138.774017,81.450684 
	C136.813736,80.771851 134.628815,80.416145 132.564850,80.479385 
	C131.240021,80.519981 129.947037,81.600021 128.639786,82.214127 
	C129.300018,83.619003 129.695068,85.249649 130.665955,86.390038 
	C135.096191,91.593750 136.675461,104.010323 132.703568,109.451630 
	C129.941467,113.235596 129.083954,116.666916 131.030716,120.836639 
	C128.187103,122.063995 125.343491,123.291344 122.071312,124.613373 
	C121.405815,124.494637 121.191872,124.260254 121.009750,123.614456 
	C122.849098,119.067459 124.769150,114.947021 126.468513,110.737495 
	C127.205940,108.910805 127.489052,106.900711 128.062927,104.615784 
	C128.831360,101.865074 129.515366,99.472511 130.446625,96.949242 
	C130.517181,95.854225 130.340500,94.889908 129.970825,93.648315 
	C121.407875,84.643150 113.125740,75.828407 104.624817,67.229980 
	C101.207947,63.773911 97.101280,61.628017 91.674606,64.029327 
	C89.886368,64.697823 88.445297,65.351418 87.004234,66.005013 
z"/>
<path fill="#1E7DC2" opacity="1.000000" stroke="none" 
	d="
M121.000916,124.004883 
	C121.191872,124.260254 121.405815,124.494637 121.827522,124.859016 
	C122.002487,127.047867 121.992676,129.085739 121.668427,131.680298 
	C116.422043,137.467972 116.230118,138.806656 119.954247,142.000259 
	C114.858208,147.246689 109.762161,152.493134 104.374886,157.902359 
	C102.708931,158.216721 101.161545,158.011795 99.988617,158.579941 
	C94.102051,161.431335 91.882866,160.352646 89.241058,154.743027 
	C87.638451,151.340042 84.866547,148.326584 82.100494,145.681305 
	C79.690140,143.376190 77.495575,137.073807 79.557373,134.660767 
	C80.342949,133.741364 82.680534,133.965820 84.306183,133.989273 
	C86.737183,134.024323 89.164085,134.342438 92.240692,134.271042 
	C95.259384,134.002579 97.630119,134.003220 100.284912,134.192566 
	C104.127388,132.671982 107.715569,131.021347 111.235596,129.236343 
	C114.528267,127.566605 117.748688,125.754387 121.000916,124.004883 
z"/>
<path fill="#2183C6" opacity="1.000000" stroke="none" 
	d="
M131.357132,120.876572 
	C129.083954,116.666916 129.941467,113.235596 132.703568,109.451630 
	C136.675461,104.010323 135.096191,91.593750 130.665955,86.390038 
	C129.695068,85.249649 129.300018,83.619003 128.639786,82.214127 
	C129.947037,81.600021 131.240021,80.519981 132.564850,80.479385 
	C134.628815,80.416145 136.813736,80.771851 138.774017,81.450684 
	C148.267715,84.738319 154.409424,92.238426 160.924316,100.058365 
	C161.016098,101.516953 161.020370,102.270859 161.024643,103.024773 
	C157.849869,106.213936 154.675110,109.403099 150.855438,112.781715 
	C149.474930,112.983925 148.739288,112.996681 147.626068,113.037170 
	C142.497910,115.706459 137.747360,118.348022 132.996796,120.989578 
	C132.559052,120.965218 132.121292,120.940857 131.357132,120.876572 
z"/>
<path fill="#1871BA" opacity="1.000000" stroke="none" 
	d="
M71.893723,66.260498 
	C74.677277,69.749695 72.812973,73.043701 70.202965,75.388405 
	C68.223083,77.167030 65.188095,78.463219 62.522358,78.667801 
	C50.302631,79.605583 44.542259,88.948540 38.270992,97.275604 
	C36.953243,99.025314 37.894978,103.423836 39.149910,105.921265 
	C40.676853,108.960037 43.294098,111.739990 46.060783,113.796257 
	C49.825951,116.594604 54.178654,118.602440 58.648804,120.980385 
	C56.841648,121.293419 53.885445,122.622551 52.620121,121.680519 
	C46.291031,116.968513 40.405239,111.661095 34.150749,105.909393 
	C31.828516,100.810555 32.189606,96.642838 35.539833,92.953819 
	C37.796776,90.468658 40.336464,88.237259 42.554482,85.720337 
	C48.512405,78.959511 55.249733,73.800133 64.831581,73.761925 
	C65.564369,73.758995 66.292671,72.627625 67.023056,72.020767 
	C68.584846,70.192635 70.146637,68.364502 71.893723,66.260498 
z"/>
<path fill="#1B74BA" opacity="1.000000" stroke="none" 
	d="
M161.329926,102.872253 
	C161.020370,102.270859 161.016098,101.516953 161.014099,100.386627 
	C164.936935,96.566010 161.207367,94.004784 159.411850,92.316292 
	C154.238388,87.451157 148.713425,82.874313 142.870056,78.846466 
	C140.311554,77.082901 136.614487,77.018654 133.490219,76.010017 
	C131.693665,75.430008 130.008667,74.504395 128.124664,73.411835 
	C129.297791,73.045746 130.754730,73.351601 131.919556,72.901497 
	C139.112564,70.121994 144.405045,73.980949 149.336044,78.098961 
	C154.746384,82.617271 159.810547,87.571892 164.810577,92.552208 
	C168.237183,95.965302 167.109543,99.189377 161.329926,102.872253 
z"/>
<path fill="#1466B0" opacity="1.000000" stroke="none" 
	d="
M66.574059,72.013855 
	C66.292671,72.627625 65.564369,73.758995 64.831581,73.761925 
	C55.249733,73.800133 48.512405,78.959511 42.554482,85.720337 
	C40.336464,88.237259 37.796776,90.468658 35.539833,92.953819 
	C32.189606,96.642838 31.828516,100.810555 33.965469,105.632607 
	C33.218086,105.393623 32.392807,104.831047 31.676239,104.153503 
	C26.252897,99.025528 26.113201,97.397957 31.519012,92.047935 
	C37.588322,86.041275 43.684704,80.017288 50.249741,74.581024 
	C52.478313,72.735619 56.121826,72.385323 59.205330,71.857491 
	C61.437954,71.475304 63.813339,71.927071 66.574059,72.013855 
z"/>
<path fill="#166AB4" opacity="1.000000" stroke="none" 
	d="
M95.001678,32.951630 
	C92.239586,35.811260 89.261147,38.494915 86.761566,41.568054 
	C81.924873,47.514603 77.357956,53.680573 72.365730,59.884750 
	C69.297997,58.216942 70.111526,55.954525 71.669640,54.097603 
	C75.152130,49.947254 78.805878,45.931660 82.540367,42.004288 
	C86.049850,38.313541 89.752655,34.806622 93.864334,31.317963 
	C94.572739,31.928614 94.787209,32.440125 95.001678,32.951630 
z"/>
<path fill="#1E7DC2" opacity="1.000000" stroke="none" 
	d="
M133.313293,121.158684 
	C137.747360,118.348022 142.497910,115.706459 147.623840,113.403198 
	C147.988251,114.472153 147.977310,115.202789 147.966385,115.933441 
	C146.109680,117.329918 143.990234,118.487259 142.453903,120.175331 
	C139.711502,123.188614 136.898804,123.449707 133.313293,121.158684 
z"/>
<path fill="#1B74BA" opacity="1.000000" stroke="none" 
	d="
M122.177055,61.691315 
	C119.365562,58.215992 116.766907,54.448536 114.401939,50.414658 
	C116.413963,50.438911 118.192299,50.729580 119.970634,51.020248 
	C124.678947,53.570389 124.242371,57.319771 122.177055,61.691315 
z"/>
<path fill="#166AB4" opacity="1.000000" stroke="none" 
	d="
M106.994934,40.004120 
	C103.881859,37.717419 100.768784,35.430714 97.478127,32.741867 
	C98.861092,31.904572 100.421638,31.469421 101.982178,31.034271 
	C105.204445,34.501396 108.426704,37.968521 111.818939,41.723408 
	C111.988914,42.011169 111.972244,42.027149 111.630829,41.995903 
	C109.857918,41.311142 108.426430,40.657631 106.994934,40.004120 
z"/>
<path fill="#1C79BE" opacity="1.000000" stroke="none" 
	d="
M120.173080,141.716919 
	C116.230118,138.806656 116.422043,137.467972 121.668701,132.117325 
	C123.573395,135.500610 123.601578,138.740143 120.173080,141.716919 
z"/>
<path fill="#1A71B8" opacity="1.000000" stroke="none" 
	d="
M119.899216,50.696560 
	C118.192299,50.729580 116.413963,50.438911 114.317657,50.074249 
	C113.470741,49.462345 112.941788,48.924431 112.203972,48.195427 
	C111.995590,47.559418 111.996063,47.114494 112.398392,46.335323 
	C113.870399,45.997635 114.940559,45.994198 116.010719,45.990765 
	C117.283081,47.451466 118.555443,48.912170 119.899216,50.696560 
z"/>
<path fill="#1261A9" opacity="1.000000" stroke="none" 
	d="
M101.796768,30.733723 
	C100.421638,31.469421 98.861092,31.904572 97.140274,32.653950 
	C96.540398,32.969551 96.100792,32.970924 95.331436,32.961967 
	C94.787209,32.440125 94.572739,31.928614 94.175781,31.203558 
	C96.211342,26.408659 98.848602,27.562574 101.796768,30.733723 
z"/>
<path fill="#186EB9" opacity="1.000000" stroke="none" 
	d="
M94.051277,164.354797 
	C95.365135,164.028259 96.777222,164.020065 98.613289,164.019348 
	C97.794998,167.168808 96.249252,168.015869 94.051277,164.354797 
z"/>
<path fill="#166AB4" opacity="1.000000" stroke="none" 
	d="
M115.841377,45.722565 
	C114.940559,45.994198 113.870399,45.997635 112.399063,46.001678 
	C111.997894,46.002281 111.993347,45.505100 111.993912,44.883434 
	C111.987061,43.516895 111.979652,42.772022 111.972244,42.027149 
	C111.972244,42.027149 111.988914,42.011169 111.997917,42.003288 
	C113.228622,43.148388 114.450325,44.301373 115.841377,45.722565 
z"/>
<path fill="#166AB4" opacity="1.000000" stroke="none" 
	d="
M125.928864,71.678856 
	C125.059479,71.204567 124.111725,70.411598 123.093658,69.295471 
	C123.965721,69.768272 124.908104,70.564224 125.928864,71.678856 
z"/>
<path fill="#1B74BA" opacity="1.000000" stroke="none" 
	d="
M148.236389,115.788940 
	C147.977310,115.202789 147.988251,114.472153 148.001434,113.375473 
	C148.739288,112.996681 149.474930,112.983925 150.577072,112.963013 
	C150.131195,113.851379 149.318802,114.747917 148.236389,115.788940 
z"/>
<path fill="#1871BA" opacity="1.000000" stroke="none" 
	d="
M70.130821,125.270905 
	C70.625687,125.485199 71.207153,125.985580 71.873611,126.775955 
	C71.378204,126.562965 70.797813,126.059982 70.130821,125.270905 
z"/>
<path fill="#1871BA" opacity="1.000000" stroke="none" 
	d="
M67.065933,121.302780 
	C67.568146,121.494911 68.181007,121.965981 68.894241,122.722267 
	C68.388603,122.532219 67.782593,122.056961 67.065933,121.302780 
z"/>
<path fill="#1B5DAA" opacity="1.000000" stroke="none" 
	d="
M130.199387,97.079941 
	C129.515366,99.472511 128.831360,101.865074 127.760765,104.689133 
	C126.584267,105.750038 125.794342,106.379456 124.728928,107.197815 
	C118.980484,112.941551 113.507538,118.496353 107.848572,124.199661 
	C107.422173,124.558220 107.208923,124.792915 106.727058,125.223206 
	C102.095184,129.607559 96.736473,130.388672 90.939735,129.653015 
	C89.631241,127.774071 88.563332,126.065025 87.156509,124.707100 
	C81.544098,119.289757 75.828545,113.979225 70.146271,108.634361 
	C67.783264,106.411674 65.407967,104.202057 63.038261,101.986496 
	C63.031796,99.301880 63.025326,96.617271 63.357193,93.385132 
	C64.468155,91.559685 65.240784,90.281754 66.013412,89.003822 
	C71.567963,83.833008 77.156685,78.698120 82.654953,73.468155 
	C84.183372,72.014320 85.443817,70.278755 87.247406,68.260666 
	C89.118996,66.570724 90.570381,65.292580 92.021774,64.014427 
	C97.101280,61.628017 101.207947,63.773911 104.624817,67.229980 
	C113.125740,75.828407 121.407875,84.643150 129.936966,94.042648 
	C130.130508,95.502815 130.164948,96.291382 130.199387,97.079941 
M111.081635,80.417343 
	C107.578873,77.090546 104.008324,73.831390 100.597145,70.413200 
	C98.318047,68.129425 95.734322,67.647812 93.509193,69.775505 
	C85.457230,77.474907 77.561050,85.340912 69.741096,93.277084 
	C67.331558,95.722427 67.858536,98.254944 70.320374,100.673889 
	C77.805214,108.028328 85.222069,115.453423 92.575836,122.938988 
	C95.284317,125.696014 97.952072,125.451584 100.426208,123.016548 
	C108.258835,115.307732 115.951447,107.456863 123.730232,99.693031 
	C126.087143,97.340652 126.081596,95.252617 123.622498,92.905724 
	C119.526192,88.996330 115.588799,84.920418 111.081635,80.417343 
z"/>
<path fill="#156AB4" opacity="1.000000" stroke="none" 
	d="
M62.852634,102.245293 
	C65.407967,104.202057 67.783264,106.411674 70.146271,108.634361 
	C75.828545,113.979225 81.544098,119.289757 87.156509,124.707100 
	C88.563332,126.065025 89.631241,127.774071 90.681854,129.659821 
	C90.337067,130.001755 90.165329,130.005600 89.993599,130.009445 
	C87.562500,128.718811 84.670013,127.899094 82.784424,126.051674 
	C76.425125,119.821098 70.366890,113.277412 64.343391,106.715897 
	C63.388432,105.675636 63.206394,103.925842 62.852634,102.245293 
z"/>
<path fill="#1870B8" opacity="1.000000" stroke="none" 
	d="
M90.134628,130.295258 
	C90.165329,130.005600 90.337067,130.001755 90.766678,129.991089 
	C96.736473,130.388672 102.095184,129.607559 106.720078,125.607109 
	C107.537735,131.001282 102.206238,131.164093 100.000862,134.003876 
	C97.630119,134.003220 95.259384,134.002579 92.444466,134.001587 
	C91.425415,132.861160 90.850540,131.721115 90.134628,130.295258 
z"/>
<path fill="#1A71B8" opacity="1.000000" stroke="none" 
	d="
M111.630829,41.995903 
	C111.979652,42.772022 111.987061,43.516895 111.992317,44.634842 
	C110.350960,43.570805 108.711754,42.133694 107.033737,40.350357 
	C108.426430,40.657631 109.857918,41.311142 111.630829,41.995903 
z"/>
<path fill="#156AB4" opacity="1.000000" stroke="none" 
	d="
M91.674606,64.029327 
	C90.570381,65.292580 89.118996,66.570724 87.338867,67.932327 
	C87.008217,67.568840 87.006310,67.121902 87.004318,66.339981 
	C88.445297,65.351418 89.886368,64.697823 91.674606,64.029327 
z"/>
<path fill="#156AB4" opacity="1.000000" stroke="none" 
	d="
M65.679230,89.093163 
	C65.240784,90.281754 64.468155,91.559685 63.369629,92.938202 
	C63.810833,91.753357 64.577942,90.467926 65.679230,89.093163 
z"/>
<path fill="#1B77BE" opacity="1.000000" stroke="none" 
	d="
M100.284912,134.192566 
	C102.206238,131.164093 107.537735,131.001282 107.015839,125.436188 
	C107.208923,124.792915 107.422173,124.558220 108.072128,124.389465 
	C109.363197,124.654839 110.711899,125.363075 111.056404,125.030655 
	C116.572121,119.708298 123.127747,115.149040 125.004417,107.008873 
	C125.794342,106.379456 126.584267,105.750038 127.676346,105.047272 
	C127.489052,106.900711 127.205940,108.910805 126.468513,110.737495 
	C124.769150,114.947021 122.849098,119.067459 121.009750,123.614456 
	C117.748688,125.754387 114.528267,127.566605 111.235596,129.236343 
	C107.715569,131.021347 104.127388,132.671982 100.284912,134.192566 
z"/>
<path fill="#1870B8" opacity="1.000000" stroke="none" 
	d="
M130.446625,96.949242 
	C130.164948,96.291382 130.130508,95.502815 130.129944,94.319923 
	C130.340500,94.889908 130.517181,95.854225 130.446625,96.949242 
z"/>
<path fill="#DBE8F0" opacity="1.000000" stroke="none" 
	d="
M111.333069,80.665985 
	C115.588799,84.920418 119.526192,88.996330 123.622498,92.905724 
	C126.081596,95.252617 126.087143,97.340652 123.730232,99.693031 
	C115.951447,107.456863 108.258835,115.307732 100.426208,123.016548 
	C97.952072,125.451584 95.284317,125.696014 92.575836,122.938988 
	C85.222069,115.453423 77.805214,108.028328 70.320374,100.673889 
	C67.858536,98.254944 67.331558,95.722427 69.741096,93.277084 
	C77.561050,85.340912 85.457230,77.474907 93.509193,69.775505 
	C95.734322,67.647812 98.318047,68.129425 100.597145,70.413200 
	C104.008324,73.831390 107.578873,77.090546 111.333069,80.665985 
M113.859337,92.320740 
	C109.135605,87.645538 104.355415,83.025421 99.714539,78.269363 
	C97.720573,76.225914 96.047508,75.784798 93.866943,78.007088 
	C88.630226,83.343987 83.159386,88.457535 78.080353,93.936821 
	C77.181427,94.906586 76.937279,97.935272 77.720184,98.777740 
	C83.032082,104.493721 88.607292,109.980049 94.358582,115.255859 
	C95.186729,116.015556 98.026093,115.896782 98.900536,115.078880 
	C104.600838,109.747185 110.037155,104.131386 115.510750,98.560303 
	C117.122269,96.920074 117.894440,95.193275 114.830109,93.493736 
	C114.631363,93.232117 114.374016,93.056236 113.859337,92.320740 
z"/>
<path fill="#1870B8" opacity="1.000000" stroke="none" 
	d="
M124.728928,107.197815 
	C123.127747,115.149040 116.572121,119.708298 111.056404,125.030655 
	C110.711899,125.363075 109.363197,124.654839 108.258141,124.240952 
	C113.507538,118.496353 118.980484,112.941551 124.728928,107.197815 
z"/>
<path fill="#0950A6" opacity="1.000000" stroke="none" 
	d="
M114.058067,92.966087 
	C114.374016,93.056236 114.631363,93.232117 114.886444,94.071915 
	C114.828224,95.300163 114.944321,96.172325 114.564407,96.566864 
	C109.153175,102.186218 103.757034,107.827583 98.100525,113.193001 
	C97.451370,113.808746 94.787392,113.307945 93.860176,112.453712 
	C89.092484,108.061256 84.473343,103.488159 80.098946,98.706772 
	C79.346519,97.884346 79.380295,95.160736 80.148918,94.323967 
	C84.532845,89.551399 89.099113,84.912437 93.973770,80.651787 
	C95.005959,79.749619 98.156487,79.873550 99.331177,80.796806 
	C102.708481,83.451256 105.465019,86.879059 108.687943,89.753548 
	C110.216858,91.117172 112.252167,91.913017 114.058067,92.966087 
M88.094505,101.661667 
	C88.733612,102.435806 89.372726,103.209953 90.385254,104.505768 
	C91.905403,105.690186 93.425552,106.874603 95.206566,108.622795 
	C98.589043,111.152550 99.021973,108.003021 100.601669,105.746941 
	C101.423424,104.857239 102.245186,103.967529 103.720467,102.885254 
	C111.318596,97.871735 111.438591,95.690407 104.430161,90.285400 
	C103.124550,89.278511 101.954872,87.568260 100.538895,87.344551 
	C97.838478,86.917931 94.781654,86.698669 92.296135,87.583099 
	C90.156013,88.344612 88.486755,90.652290 86.817253,92.467590 
	C83.232483,96.365425 83.434189,97.533585 87.956146,101.018211 
	C87.956146,101.018211 87.948257,101.060715 88.094505,101.661667 
z"/>
<path fill="#4574B5" opacity="1.000000" stroke="none" 
	d="
M113.958702,92.643417 
	C112.252167,91.913017 110.216858,91.117172 108.687943,89.753548 
	C105.465019,86.879059 102.708481,83.451256 99.331177,80.796806 
	C98.156487,79.873550 95.005959,79.749619 93.973770,80.651787 
	C89.099113,84.912437 84.532845,89.551399 80.148918,94.323967 
	C79.380295,95.160736 79.346519,97.884346 80.098946,98.706772 
	C84.473343,103.488159 89.092484,108.061256 93.860176,112.453712 
	C94.787392,113.307945 97.451370,113.808746 98.100525,113.193001 
	C103.757034,107.827583 109.153175,102.186218 114.564407,96.566864 
	C114.944321,96.172325 114.828224,95.300163 114.995811,94.282211 
	C117.894440,95.193275 117.122269,96.920074 115.510750,98.560303 
	C110.037155,104.131386 104.600838,109.747185 98.900536,115.078880 
	C98.026093,115.896782 95.186729,116.015556 94.358582,115.255859 
	C88.607292,109.980049 83.032082,104.493721 77.720184,98.777740 
	C76.937279,97.935272 77.181427,94.906586 78.080353,93.936821 
	C83.159386,88.457535 88.630226,83.343987 93.866943,78.007088 
	C96.047508,75.784798 97.720573,76.225914 99.714539,78.269363 
	C104.355415,83.025421 109.135605,87.645538 113.958702,92.643417 
z"/>
<path fill="#1B79BF" opacity="1.000000" stroke="none" 
	d="
M94.945702,108.059021 
	C93.425552,106.874603 91.905403,105.690186 90.162979,103.917786 
	C89.276558,102.573441 88.612411,101.817078 87.948257,101.060715 
	C87.948257,101.060715 87.956146,101.018211 88.033630,100.681534 
	C91.557655,91.861588 94.276421,90.295624 100.233406,92.876167 
	C105.592972,95.197899 103.737991,99.235985 103.066940,103.077827 
	C102.245186,103.967529 101.423424,104.857239 99.992813,105.926430 
	C97.904541,106.756958 96.425117,107.407990 94.945702,108.059021 
z"/>
<path fill="#166BB4" opacity="1.000000" stroke="none" 
	d="
M103.393707,102.981537 
	C103.737991,99.235985 105.592972,95.197899 100.233406,92.876167 
	C94.276421,90.295624 91.557655,91.861588 88.016922,100.695709 
	C83.434189,97.533585 83.232483,96.365425 86.817253,92.467590 
	C88.486755,90.652290 90.156013,88.344612 92.296135,87.583099 
	C94.781654,86.698669 97.838478,86.917931 100.538895,87.344551 
	C101.954872,87.568260 103.124550,89.278511 104.430161,90.285400 
	C111.438591,95.690407 111.318596,97.871735 103.393707,102.981537 
z"/>
<path fill="#166BB4" opacity="1.000000" stroke="none" 
	d="
M95.076134,108.340912 
	C96.425117,107.407990 97.904541,106.756958 99.739067,106.095161 
	C99.021973,108.003021 98.589043,111.152550 95.076134,108.340912 
z"/>
<path fill="#166BB4" opacity="1.000000" stroke="none" 
	d="
M88.021378,101.361191 
	C88.612411,101.817078 89.276558,102.573441 89.976273,103.656952 
	C89.372726,103.209953 88.733612,102.435806 88.021378,101.361191 
z"/>
</svg>